<svg width="51" height="55" viewBox="0 0 51 55" fill="none" xmlns="http://www.w3.org/2000/svg">
<g clip-path="url(#clip0_3678_243)">
<path d="M17.4594 17.0001C17.3194 17.3401 17.4694 17.6001 17.7094 17.7301C17.8994 17.9301 18.1894 18.0101 18.4794 17.7901C20.0394 16.6201 21.5994 14.8301 21.4094 12.7301C21.2094 10.6201 15.6994 6.02016 19.5094 4.54016C20.2094 4.27016 20.1694 3.16016 19.3194 3.16016C16.6694 3.17016 13.9494 4.07016 13.7894 7.10016C13.5694 11.1401 19.2594 12.5801 17.4594 17.0001ZM16.5094 9.97016C14.6294 7.77016 15.1494 5.89016 16.9394 5.05016C16.6494 5.71016 16.5994 6.50016 16.8694 7.46016C17.1494 8.46016 17.7794 9.36016 18.3994 10.1701C19.7594 11.9601 20.1794 13.5901 19.1994 15.1201C19.1794 14.1901 18.9594 13.2601 18.5294 12.4701C17.9994 11.4801 17.2294 10.8101 16.5094 9.97016Z" fill="#F66921"/>
<path d="M26.4208 16.66C26.2808 17 26.4308 17.26 26.6708 17.39C26.8608 17.59 27.1508 17.67 27.4408 17.45C29.2908 16.06 31.1508 13.94 30.9108 11.44C30.6508 8.79 23.7808 3.29 28.7208 1.37C29.4308 1.1 29.3808 0 28.5408 0C25.3908 0.01 22.2108 1.04 21.9808 4.63C21.6708 9.53 28.6408 11.21 26.4208 16.66ZM25.0308 8.2C22.5608 5.31 23.4108 2.83 25.9508 1.85C25.4608 2.68 25.3608 3.72 25.7208 5.01C26.0508 6.2 26.8008 7.26 27.5408 8.23C29.3408 10.61 29.8108 12.77 28.2508 14.79C28.3108 13.54 28.0408 12.27 27.4608 11.2C26.8208 10.01 25.8908 9.21 25.0308 8.2Z" fill="#F66921"/>
<path d="M48.0308 24.4199C46.4208 23.2799 44.6908 23.1399 43.1308 23.9299C43.1208 21.8599 42.4408 20.2799 40.6108 19.8399C40.5808 19.8299 40.5508 19.8399 40.5208 19.8399C40.4908 19.8299 40.4608 19.8199 40.4308 19.8199C29.1008 19.4399 17.3408 18.8799 6.0308 19.8599C2.2208 20.1899 2.5908 22.5099 2.8708 25.9299C3.1608 29.5299 3.8708 33.1399 5.4008 36.4199C6.3708 38.4999 7.6408 40.2799 9.1608 41.7599C5.8408 42.0999 -0.0791974 43.2799 0.000802567 46.5499C0.0608026 49.0299 4.4908 49.8999 6.2808 50.1699C6.9908 50.2799 7.7108 50.3699 8.4308 50.4399C10.4408 55.0299 18.0208 54.1799 22.0508 54.2399C25.6208 54.2899 29.5708 54.4399 33.0808 53.6999C35.2308 53.2499 36.2508 51.7599 37.5108 50.0799C40.1808 49.7799 44.4308 49.2299 45.4608 47.1099C47.0108 43.9199 38.6508 42.5399 35.0708 42.1499C35.4108 41.8299 35.7408 41.4899 36.0608 41.1399C36.1408 41.1599 36.2108 41.1799 36.3108 41.1799C41.8508 40.9499 49.5708 37.3299 50.2308 31.0999C50.4808 28.7699 50.0408 25.8599 48.0308 24.4199ZM42.2008 29.5999C42.7208 29.3899 43.5408 29.0699 44.1108 29.2699C44.8608 29.5399 45.1408 30.3199 45.0108 31.0399C44.8308 32.0199 43.9508 32.9899 43.1708 33.5499C42.3208 34.1599 41.0608 34.8399 39.9308 35.0799C40.6608 33.5099 41.4608 31.5799 42.0808 29.6199C42.1208 29.6099 42.1608 29.6199 42.2008 29.5999ZM29.7308 52.6399C27.6008 52.7999 25.4708 52.8599 23.3308 52.8599C20.2108 52.8599 12.3708 53.6099 10.0908 50.5999C13.6108 50.8499 17.1908 50.7999 20.6708 50.8699C25.6108 50.9599 30.5608 50.9099 35.4708 50.3199C33.9308 51.8999 32.2708 52.4499 29.7308 52.6399ZM33.7608 43.4399C36.0908 43.5499 38.3908 44.0299 40.6108 44.7299C41.3408 44.9599 43.1008 45.2999 43.5608 45.8799C44.5808 47.1599 40.5708 48.0599 39.7208 48.2499C33.7608 49.5999 27.4108 49.5799 21.3308 49.4799C18.4608 49.4299 15.5808 49.3499 12.7108 49.2399C9.9108 49.1299 5.3608 49.4699 2.9108 47.7599C-0.389197 45.4699 4.5108 44.2299 6.3208 43.7599C7.7008 43.4099 9.1308 43.1199 10.5608 43.0699C10.5908 43.0699 10.6108 43.0599 10.6308 43.0499C13.5208 45.2999 17.0908 46.6099 21.0308 46.9499C25.8408 47.3599 30.1308 46.0799 33.6108 43.3999C33.6508 43.4099 33.7008 43.4399 33.7608 43.4399ZM33.9308 41.3999C27.8208 47.1999 17.0508 47.0299 10.7808 41.4899C8.0008 39.0399 6.3008 35.6899 5.3308 32.1599C4.7708 30.1199 4.4408 28.0299 4.2608 25.9299C4.2008 25.2299 3.9408 23.7999 4.1208 23.1199C4.7508 20.7399 7.1508 21.2299 8.8408 21.1899C19.3208 20.9299 29.8108 20.8799 40.2908 21.2199C43.2008 22.0199 40.3708 30.1299 39.7808 31.8299C38.5408 35.3599 36.6608 38.7999 33.9308 41.3999ZM46.3908 35.4399C43.9508 37.8899 40.6508 39.3599 37.2408 39.7099C37.6508 39.1699 38.0508 38.5999 38.4208 37.9999C38.6308 37.6499 38.9108 37.1599 39.2108 36.5699C39.2308 36.5699 39.2408 36.5799 39.2608 36.5799C41.8008 36.4999 44.9508 34.5399 46.0508 32.2599C46.5708 31.1799 46.6108 29.8599 45.8608 28.8599C45.0408 27.7699 43.7408 27.6999 42.5408 28.0199C42.7508 27.2199 42.9108 26.4199 43.0108 25.6699C45.6808 23.4099 48.4908 26.1799 48.7908 28.9499C49.0808 31.6199 48.2408 33.5699 46.3908 35.4399Z" fill="#F66921"/>
<path d="M7.23066 24.93C7.16066 24.04 5.76066 24.03 5.83066 24.93C6.12066 28.51 7.21066 31.86 9.12066 34.9C9.60066 35.66 10.8107 34.96 10.3307 34.19C8.55066 31.36 7.50066 28.27 7.23066 24.93Z" fill="#F66921"/>
<path d="M11.1301 36.5195C10.2301 36.5195 10.2301 37.9195 11.1301 37.9195C12.0301 37.9195 12.0301 36.5195 11.1301 36.5195Z" fill="#F66921"/>
</g>
<defs>
<clipPath id="clip0_3678_243">
<rect width="51" height="55" fill="white"/>
</clipPath>
</defs>
</svg>
