<svg width="43" height="46" viewBox="0 0 43 46" fill="none" xmlns="http://www.w3.org/2000/svg">
<g clip-path="url(#clip0_3677_223)">
<mask id="mask0_3677_223" style="mask-type:luminance" maskUnits="userSpaceOnUse" x="0" y="0" width="43" height="46">
<path d="M43 0H0V46H43V0Z" fill="white"/>
</mask>
<g mask="url(#mask0_3677_223)">
<path d="M29.4805 1.8908C29.4805 1.38398 29.0769 0.97387 28.5781 0.97387C28.0793 0.97387 27.6757 1.38398 27.6757 1.8908V12.1504C27.6101 14.8045 25.6674 16.9618 23.3311 16.9618C20.9947 16.9618 19.0488 14.8045 18.9864 12.1471C18.9864 12.1471 18.9864 12.1471 18.9864 12.1437V1.8808C18.9864 1.37398 18.5828 0.963867 18.084 0.963867C17.5853 0.963867 17.1816 1.37398 17.1816 1.8808V12.1437C17.1816 12.1504 17.1816 12.1537 17.1816 12.1604C17.2473 15.4814 19.5279 18.2288 22.4319 18.7123V24.584C21.3261 24.8441 20.4959 25.851 20.4959 27.0547V43.036C20.4959 44.4364 21.6181 45.5768 22.9931 45.5768H23.6723C25.0505 45.5768 26.1695 44.4364 26.1695 43.036V27.0581C26.1695 25.8544 25.3393 24.8474 24.2335 24.5873V18.7156C27.1343 18.2355 29.4149 15.4847 29.4838 12.1637C29.4838 12.1571 29.4838 12.1537 29.4838 12.1471V1.8908H29.4805ZM24.3647 43.036C24.3647 43.4261 24.053 43.7429 23.6723 43.7429H22.9931C22.6091 43.7429 22.3007 43.4261 22.3007 43.036V27.0581C22.3007 26.6679 22.6124 26.3545 22.9931 26.3545H23.6723C24.0563 26.3545 24.3647 26.6713 24.3647 27.0581V43.036Z" fill="#F66921"/>
<path d="M21.545 13.0607C22.0437 13.0607 22.4473 12.6505 22.4473 12.1437V1.8808C22.4473 1.37398 22.0437 0.963867 21.545 0.963867C21.0462 0.963867 20.6426 1.37398 20.6426 1.8808V12.1437C20.6426 12.6505 21.0462 13.0607 21.545 13.0607Z" fill="#F66921"/>
<path d="M25.0664 13.0607C25.5652 13.0607 25.9688 12.6505 25.9688 12.1437V1.8808C25.9688 1.37398 25.5652 0.963867 25.0664 0.963867C24.5677 0.963867 24.1641 1.37398 24.1641 1.8808V12.1437C24.1641 12.6505 24.5677 13.0607 25.0664 13.0607Z" fill="#F66921"/>
<path d="M42.113 25.5443V0.917235C42.113 0.590474 41.9424 0.290387 41.6668 0.123672C41.3911 -0.0397088 41.0466 -0.0430431 40.7677 0.117003C40.574 0.227035 36.0293 2.92114 36.0293 9.9065V22.1C36.0293 22.6068 36.4329 23.0169 36.9316 23.0169H40.3082V24.9442H39.8226C38.4444 24.9442 37.3254 26.0845 37.3254 27.4816V43.4629C37.3254 44.8633 38.4477 46.0036 39.8226 46.0036H40.5019C41.8801 46.0036 42.999 44.8633 42.999 43.4629V27.4816C42.999 26.7047 42.6545 26.0111 42.113 25.5443ZM37.834 21.1831V9.9065C37.834 6.31213 39.209 4.08482 40.3082 2.87446V21.1831H37.834ZM41.1942 43.4629C41.1942 43.853 40.8825 44.1697 40.5019 44.1697H39.8226C39.4387 44.1697 39.1302 43.853 39.1302 43.4629V27.4816C39.1302 27.0914 39.4419 26.778 39.8226 26.778H40.5019C40.8858 26.778 41.1942 27.0948 41.1942 27.4816V43.4629Z" fill="#F66921"/>
<path d="M6.36218 0.383789C2.8051 0.383789 0.0191542 4.67836 0.0191542 10.1599C0.0191542 10.35 0.0158727 10.5434 0.00930984 10.7367C-0.000534477 11.2069 -0.0136602 11.6904 0.0355614 12.1672C0.0289985 12.2105 0.0289985 12.2572 0.0289985 12.3005C0.0946273 15.5581 2.43101 18.2556 5.40728 18.7191V24.5841C4.30143 24.8442 3.47123 25.8511 3.47123 27.0548V43.0361C3.47123 44.4365 4.59348 45.5768 5.9684 45.5768H6.64766C8.02587 45.5768 9.14484 44.4365 9.14484 43.0361V27.0581C9.14484 25.8545 8.31464 24.8475 7.20879 24.5874V18.7191C10.185 18.2489 12.5247 15.5081 12.6035 12.1972C12.6199 11.9604 12.7052 10.5967 12.7052 10.1599C12.7019 4.67836 9.91598 0.383789 6.36218 0.383789ZM7.34005 43.0361C7.34005 43.4262 7.02831 43.743 6.64766 43.743H5.9684C5.58448 43.743 5.27602 43.4262 5.27602 43.0361V27.0581C5.27602 26.668 5.58776 26.3546 5.9684 26.3546H6.64766C7.03159 26.3546 7.34005 26.6714 7.34005 27.0581V43.0361ZM10.802 12.0971L10.7987 12.1372C10.7462 14.7979 8.73138 16.9619 6.30639 16.9619C3.94704 16.9619 1.97489 14.948 1.83707 12.4406C1.85676 12.3372 1.86004 12.2305 1.84692 12.1205C1.79113 11.727 1.80097 11.2669 1.8141 10.7801C1.82066 10.57 1.82394 10.3633 1.82394 10.1566C1.82394 5.85204 3.9011 2.21432 6.36218 2.21432C8.82326 2.21432 10.9004 5.85204 10.9004 10.1566C10.8971 10.4933 10.8282 11.6703 10.802 12.0971Z" fill="#F66921"/>
</g>
</g>
<defs>
<clipPath id="clip0_3677_223">
<rect width="43" height="46" fill="white"/>
</clipPath>
</defs>
</svg>
