<svg width="36" height="46" viewBox="0 0 36 46" fill="none" xmlns="http://www.w3.org/2000/svg">
<g clip-path="url(#clip0_3678_235)">
<mask id="mask0_3678_235" style="mask-type:luminance" maskUnits="userSpaceOnUse" x="0" y="0" width="36" height="46">
<path d="M36 0H0V46H36V0Z" fill="white"/>
</mask>
<g mask="url(#mask0_3678_235)">
<path d="M5.04058 19.4175C2.70999 20.9224 2.76914 24.4183 2.7721 24.5567L2.93181 42.1656C2.93477 42.6104 3.29855 42.9667 3.74515 42.9667C3.74811 42.9667 3.75107 42.9667 3.75402 42.9667C4.20358 42.9638 4.56441 42.5956 4.56145 42.148L4.40174 24.5273C4.40174 24.5008 4.37808 21.7765 5.93082 20.7752C6.30644 20.5307 6.41587 20.03 6.17039 19.656C5.92491 19.282 5.41916 19.176 5.04058 19.4175Z" fill="#F66921"/>
<path d="M14.7944 17.0818C12.5791 15.6504 12.2153 15.0349 12.2153 12.6906V0.809911C12.2153 0.362251 11.8515 0 11.402 0H10.0622H7.51563H6.17583C5.72628 0 5.36249 0.362251 5.36249 0.809911V12.6906C5.36249 15.0349 5.00166 15.6504 2.78346 17.0818C-0.0410552 18.9077 -0.00260622 22.9426 0.000351386 23.1075L0.201469 45.1989C0.201469 45.2284 0.207384 45.2578 0.210342 45.2873C0.213299 45.3108 0.213299 45.3344 0.219214 45.358C0.22513 45.3904 0.23696 45.4198 0.24879 45.4493C0.254706 45.4699 0.260621 45.4905 0.269494 45.5111C0.281324 45.5406 0.29907 45.57 0.316815 45.5995C0.325688 45.6171 0.334561 45.6348 0.343434 45.6495C0.36118 45.679 0.38484 45.7025 0.408501 45.7261C0.420332 45.7408 0.429205 45.7556 0.443993 45.7673C0.467653 45.7909 0.494272 45.8115 0.523848 45.8321C0.538636 45.8439 0.550466 45.8557 0.565254 45.8675C0.594831 45.8851 0.624407 45.8999 0.653983 45.9175C0.668771 45.9264 0.683559 45.9352 0.701304 45.944C0.736796 45.9588 0.775245 45.9676 0.810736 45.9794C0.825524 45.9823 0.837354 45.9882 0.852142 45.9912C0.905379 46.0029 0.958616 46.0088 1.01481 46.0088C1.01777 46.0088 1.02073 46.0088 1.02073 46.0088H16.6961C17.1457 46.0088 17.5094 45.6466 17.5094 45.1989C17.5094 45.196 17.5094 45.1901 17.5094 45.1871C17.5094 45.1842 17.5094 45.1783 17.5094 45.1754L17.5775 23.1252C17.5804 22.9426 17.6218 18.9077 14.7944 17.0818ZM6.98918 4.71221H10.5916V9.50099H6.98918V4.71221ZM10.0622 1.61982H10.5886V3.09239H6.98918V1.61982H7.51563H10.0622ZM15.9508 23.0987L15.8857 44.3802H1.82224L1.62703 23.0869C1.62703 23.0545 1.60633 19.7736 3.66778 18.4395C6.33555 16.7166 6.98622 15.5886 6.98622 12.6876V11.1179H10.5886V12.6876C10.5886 15.5856 11.2393 16.7166 13.9071 18.4395C15.9744 19.7736 15.9537 23.0545 15.9508 23.0987Z" fill="#F66921"/>
<path d="M36.0009 21.0634C36.0009 20.9809 35.9832 20.9014 35.9595 20.8248C35.9624 20.8042 35.9654 20.7836 35.9654 20.763C35.9654 20.3153 35.6016 19.9531 35.1521 19.9531H19.4708C19.0213 19.9531 18.6575 20.3153 18.6575 20.763C18.6575 20.7836 18.6634 20.8042 18.6634 20.8248C18.6397 20.9014 18.625 20.978 18.625 21.0634C18.625 32.358 22.7331 35.3325 26.5011 35.683V44.38H23.6292C23.1797 44.38 22.8159 44.7422 22.8159 45.1899C22.8159 45.6376 23.1797 45.9998 23.6292 45.9998H31.0025C31.4521 45.9998 31.8159 45.6376 31.8159 45.1899C31.8159 44.7422 31.4521 44.38 31.0025 44.38H28.1307V35.6889C36.0009 35.041 36.0009 24.9451 36.0009 21.0634ZM23.2684 23.5785C23.2684 23.1309 22.9046 22.7686 22.4551 22.7686C22.0055 22.7686 21.6417 23.1309 21.6417 23.5785C21.6417 23.6168 21.6417 23.6551 21.6417 23.6934H20.3345C20.2901 23.0189 20.2635 22.3151 20.2546 21.5758H34.3713C34.3653 22.2856 34.3476 22.9954 34.3151 23.6934H23.2684C23.2684 23.6522 23.2684 23.6168 23.2684 23.5785ZM20.4823 25.3103H21.6979C22.1297 31.6335 24.9601 33.0294 27.3676 33.0294C27.8172 33.0294 28.181 32.6672 28.181 32.2195C28.181 31.7719 27.8172 31.4096 27.3676 31.4096C24.969 31.4096 23.6144 29.3569 23.3246 25.3103H34.1968C33.7324 30.1138 32.1501 34.1015 27.3114 34.1015C23.4695 34.1015 21.1803 31.1475 20.4823 25.3103Z" fill="#F66921"/>
</g>
</g>
<defs>
<clipPath id="clip0_3678_235">
<rect width="36" height="46" fill="white"/>
</clipPath>
</defs>
</svg>
