<svg width="553" height="700" viewBox="0 0 553 700" fill="none" xmlns="http://www.w3.org/2000/svg">
<path fill-rule="evenodd" clip-rule="evenodd" d="M274.441 0.212755C273.804 0.317761 272.716 0.670576 272.022 0.996093C271.328 1.32371 270.264 1.98315 269.656 2.46197C269.048 2.9408 268.074 4.01816 267.493 4.8561C266.911 5.69405 266.16 7.04022 265.828 7.84877C265.495 8.65731 265.064 10.0287 264.871 10.8939C264.677 11.7613 264.469 13.8404 264.408 15.5142C264.317 17.9986 264.38 19.1201 264.757 21.6045C265.011 23.2804 265.533 25.8782 265.918 27.3798C266.303 28.8814 266.963 31.1495 267.388 32.4201C267.811 33.6907 268.871 36.1016 269.742 37.7754C270.613 39.4513 271.574 41.5304 271.877 42.3956C272.415 43.9287 272.428 44.0946 272.392 48.591C272.371 51.1321 272.249 65.8287 272.123 81.2477C271.995 96.6689 271.845 109.522 271.791 109.809C271.73 110.128 271.622 110.252 271.513 110.124C271.416 110.009 270.766 108.167 270.07 106.029C269.376 103.893 268.408 100.869 267.925 99.3087C267.439 97.7504 266.568 95.056 265.99 93.3234C265.409 91.5908 264.412 88.8501 263.775 87.2331C263.135 85.616 262.046 82.9698 261.352 81.3527C260.658 79.7357 259.427 76.9488 258.617 75.1574C257.807 73.3681 255.963 69.5396 254.516 66.6519C253.069 63.7643 251.291 60.3159 250.563 58.9865C249.838 57.6593 248.588 55.4373 247.789 54.0513C246.99 52.6652 245.498 50.2081 244.476 48.591C243.454 46.9739 241.717 44.3277 240.614 42.7107C239.51 41.0936 237.893 38.8338 237.016 37.6893C236.14 36.5447 234.809 35.0515 234.056 34.3711C233.257 33.6487 231.988 32.7918 231.006 32.3109C230.076 31.8573 228.594 31.3448 227.693 31.1663C226.797 30.9899 225.449 30.845 224.696 30.845H223.329C223.152 33.5311 223.194 35.1607 223.31 36.2003C223.426 37.2399 223.72 38.8002 223.966 39.6655C224.21 40.5328 224.782 41.9966 225.234 42.9207C225.687 43.8447 226.806 45.5941 227.723 46.8059C228.638 48.0197 230.651 50.4328 232.195 52.1717C233.738 53.9106 235.764 56.2249 236.696 57.3169C237.628 58.409 239.148 60.2949 240.074 61.5067C241.001 62.7205 242.284 64.4678 242.928 65.3919C243.572 66.3159 244.809 68.206 245.677 69.5921C246.546 70.9782 247.993 73.4353 248.893 75.0524C249.794 76.6695 251.14 79.2694 251.884 80.8277C252.629 82.3881 253.662 84.6079 254.181 85.763C254.699 86.918 255.696 89.2807 256.394 91.0133C257.09 92.7459 258.35 96.1018 259.191 98.4687C260.033 100.838 261.341 104.759 262.1 107.184C262.86 109.61 263.962 113.295 264.551 115.375C265.14 117.454 266.191 121.423 266.888 124.195C267.584 126.967 268.438 130.512 268.783 132.07C269.13 133.631 269.696 136.277 270.041 137.951C270.388 139.627 270.991 142.697 271.385 144.776C271.778 146.855 272.348 149.974 272.649 151.707C272.95 153.439 273.478 156.652 273.82 158.847C274.165 161.042 274.725 165.059 275.066 167.772C275.409 170.488 275.84 174.409 276.027 176.488C276.214 178.567 276.406 180.316 276.456 180.373C276.504 180.432 276.584 180.432 276.633 180.373C276.683 180.316 276.875 178.567 277.062 176.488C277.249 174.409 277.68 170.488 278.023 167.772C278.364 165.059 278.923 161.042 279.268 158.847C279.611 156.652 280.139 153.439 280.44 151.707C280.741 149.974 281.311 146.855 281.704 144.776C282.097 142.697 282.701 139.627 283.048 137.951C283.393 136.277 283.959 133.631 284.306 132.07C284.651 130.512 285.505 126.967 286.201 124.195C286.897 121.423 287.949 117.454 288.538 115.375C289.127 113.295 290.229 109.61 290.988 107.184C291.748 104.759 293.056 100.838 293.897 98.4687C294.739 96.1018 295.999 92.7459 296.695 91.0133C297.393 89.2807 298.39 86.918 298.907 85.763C299.427 84.6079 300.46 82.3881 301.204 80.8277C301.949 79.2694 303.295 76.6695 304.195 75.0524C305.096 73.4353 306.543 70.9782 307.411 69.5921C308.28 68.206 309.517 66.3159 310.161 65.3919C310.804 64.4678 312.087 62.7205 313.013 61.5067C313.938 60.2949 315.503 58.3565 316.49 57.2014C317.476 56.0464 319.329 53.9211 320.61 52.4762C321.889 51.0334 323.418 49.284 324.007 48.591C324.596 47.8979 325.625 46.5287 326.293 45.5458C326.962 44.5651 327.785 43.1475 328.123 42.3956C328.46 41.6459 328.921 40.369 329.146 39.5605C329.371 38.7519 329.653 37.2399 329.775 36.2003C329.894 35.1607 329.941 33.5311 329.876 32.5776L329.76 30.845C327.642 30.845 326.291 30.9899 325.395 31.1663C324.495 31.3448 323.012 31.8573 322.083 32.3109C321.1 32.7918 319.832 33.6487 319.033 34.3711C318.282 35.0515 316.948 36.5447 316.073 37.6893C315.196 38.8338 313.579 41.0936 312.474 42.7107C311.372 44.3277 309.635 46.9739 308.612 48.591C307.59 50.2081 306.099 52.6652 305.3 54.0513C304.5 55.4373 303.251 57.6593 302.525 58.9865C301.798 60.3159 300.02 63.7643 298.573 66.6519C297.126 69.5396 295.281 73.3681 294.471 75.1574C293.662 76.9488 292.431 79.7357 291.737 81.3527C291.043 82.9698 289.951 85.616 289.31 87.2331C288.668 88.8501 287.526 92.0633 286.773 94.3734C286.02 96.6836 284.586 101.125 283.584 104.244C282.583 107.363 281.683 110.009 281.584 110.124C281.479 110.246 281.359 109.853 281.296 109.179C281.235 108.545 281.086 95.9275 280.964 81.1427C280.839 66.3579 280.72 51.947 280.699 49.116C280.659 44.0505 280.667 43.9455 281.21 42.3956C281.515 41.5304 282.476 39.4513 283.347 37.7754C284.217 36.1016 285.261 33.739 285.665 32.5251C286.068 31.3133 286.687 29.2342 287.038 27.9048C287.391 26.5776 287.89 24.3557 288.151 22.9696C288.525 20.9682 288.624 19.6724 288.63 16.6692C288.637 13.7732 288.548 12.4711 288.254 11.1039C288.044 10.1232 287.595 8.65731 287.263 7.84877C286.929 7.04022 286.178 5.69405 285.595 4.8561C285.015 4.01816 284.041 2.945 283.433 2.46827C282.825 1.99365 281.855 1.36782 281.277 1.078C280.699 0.788185 279.609 0.422762 278.858 0.267353C278.107 0.109845 277.064 -0.00985925 276.544 0.000641318C276.025 0.013242 275.078 0.107749 274.441 0.212755ZM166.538 63.7517C166.134 63.7958 165.305 63.9218 164.697 64.0331L163.593 64.2368C162.911 66.108 162.539 67.4563 162.327 68.437C162.112 69.4199 161.837 71.1441 161.712 72.2698C161.59 73.3954 161.489 76.1361 161.489 78.3601C161.489 80.5841 161.586 83.6797 161.704 85.238C161.822 86.7983 162.11 89.7742 162.343 91.8533C162.577 93.9324 163.052 97.4774 163.397 99.7287C163.744 101.982 164.264 105.101 164.552 106.659C164.84 108.219 165.318 110.677 165.612 112.119C165.909 113.564 166.567 116.635 167.08 118.945C167.591 121.255 168.382 124.611 168.834 126.4C169.287 128.192 169.617 129.704 169.566 129.76C169.516 129.819 168.885 129.691 168.163 129.477C167.442 129.263 166.096 128.803 165.17 128.454C164.245 128.105 160.694 126.472 157.283 124.821C153.871 123.172 149.753 121.303 148.133 120.669C146.513 120.035 144.242 119.226 143.085 118.873C141.928 118.518 140.035 117.996 138.878 117.708C137.721 117.422 135.309 116.903 133.514 116.557C131.72 116.21 128.694 115.734 126.784 115.498C124.876 115.261 122.226 114.973 120.894 114.856C119.565 114.738 116.488 114.547 114.058 114.432C111.629 114.316 106.4 114.22 102.437 114.22H95.233C95.4181 115.929 95.66 117.653 95.8892 119.155C96.1185 120.656 96.5875 123.162 96.9325 124.72C97.2795 126.28 97.9421 128.927 98.4091 130.6C98.876 132.276 99.9193 135.63 100.727 138.056C101.537 140.481 103.087 144.688 104.17 147.401C105.256 150.117 107.052 154.321 108.165 156.747C109.277 159.172 111.023 162.764 112.045 164.727C113.065 166.691 114.59 169.48 115.432 170.923C116.275 172.367 117.483 174.352 118.116 175.333C118.749 176.316 120.08 178.252 121.073 179.638C122.068 181.024 123.679 183.198 124.655 184.468C125.631 185.739 127.141 187.629 128.012 188.669C128.881 189.708 130.511 191.598 131.634 192.869C132.757 194.139 135.557 197.023 137.854 199.274C140.153 201.528 143.264 204.398 144.768 205.652C146.271 206.908 148.827 208.928 150.447 210.142C152.066 211.356 154.857 213.318 156.652 214.502C158.446 215.684 161.426 217.53 163.277 218.601C165.128 219.675 168.441 221.462 170.639 222.575C172.837 223.688 176.388 225.387 178.527 226.351C180.668 227.315 183.884 228.709 185.678 229.451C187.472 230.192 190.028 231.229 191.357 231.757C192.689 232.282 195.812 233.514 198.299 234.491C200.787 235.467 204.43 236.914 206.397 237.704C208.363 238.496 211.297 239.706 212.917 240.394C214.537 241.081 217.328 242.318 219.122 243.141C220.916 243.965 224.229 245.615 226.484 246.81C228.739 248.003 231.578 249.576 232.794 250.305C234.01 251.031 236.281 252.478 237.842 253.518C239.405 254.558 241.961 256.378 243.521 257.563C245.084 258.747 247.497 260.694 248.885 261.889C250.273 263.084 252.789 265.432 254.476 267.108C256.163 268.782 258.253 270.957 259.12 271.938C259.989 272.921 261.438 274.622 262.344 275.718C263.249 276.817 264.885 279.085 265.981 280.759C267.077 282.434 268.175 284.018 268.421 284.283L268.867 284.759H284.222C284.914 284.018 286.012 282.434 287.108 280.759C288.203 279.085 289.84 276.817 290.744 275.718C291.651 274.622 293.1 272.921 293.969 271.938C294.835 270.957 296.926 268.782 298.613 267.108C300.3 265.432 302.816 263.084 304.204 261.889C305.592 260.696 307.817 258.89 309.147 257.878C310.476 256.866 312.369 255.475 313.353 254.789C314.338 254.102 316.277 252.825 317.665 251.953C319.054 251.082 321.09 249.847 322.188 249.209C323.286 248.57 325.843 247.19 327.867 246.142C329.892 245.094 332.824 243.654 334.387 242.942C335.95 242.232 338.552 241.085 340.172 240.396C341.791 239.708 344.725 238.496 346.692 237.704C348.659 236.914 352.115 235.543 354.369 234.659C356.624 233.775 360.318 232.313 362.573 231.412C364.827 230.511 368.332 229.064 370.355 228.197C372.381 227.33 375.599 225.889 377.507 224.998C379.414 224.106 382.254 222.709 383.817 221.894C385.38 221.082 387.557 219.897 388.654 219.263C389.752 218.629 391.599 217.543 392.756 216.85C393.913 216.157 396.044 214.79 397.489 213.811C398.936 212.835 401.348 211.11 402.852 209.983C404.356 208.855 406.817 206.906 408.321 205.652C409.825 204.398 412.984 201.481 415.34 199.169C417.696 196.859 420.737 193.694 422.1 192.134C423.461 190.575 425.272 188.446 426.124 187.402C426.976 186.358 428.486 184.422 429.481 183.097C430.474 181.772 432.083 179.554 433.057 178.168C434.029 176.782 435.591 174.373 436.53 172.813C437.466 171.254 438.85 168.843 439.605 167.457C440.36 166.071 441.544 163.803 442.236 162.417C442.93 161.031 444.352 158.007 445.397 155.697C446.445 153.387 448.125 149.417 449.133 146.876C450.138 144.335 451.609 140.32 452.397 137.951C453.186 135.584 454.213 132.276 454.68 130.6C455.147 128.927 455.809 126.28 456.156 124.72C456.501 123.162 456.97 120.656 457.199 119.155C457.429 117.653 457.671 115.929 457.736 115.322L457.856 114.22C446.689 114.22 441.46 114.316 439.03 114.432C436.601 114.547 433.524 114.738 432.194 114.856C430.865 114.973 428.213 115.261 426.305 115.498C424.397 115.734 421.368 116.21 419.574 116.557C417.78 116.903 415.367 117.422 414.211 117.708C413.054 117.996 411.161 118.518 410.004 118.873C408.847 119.226 406.575 120.035 404.956 120.669C403.336 121.303 399.218 123.172 395.806 124.821C392.394 126.472 388.844 128.105 387.918 128.454C386.993 128.803 385.647 129.263 384.925 129.477C384.204 129.691 383.573 129.819 383.522 129.76C383.472 129.704 383.802 128.192 384.254 126.4C384.706 124.611 385.497 121.255 386.008 118.945C386.522 116.635 387.18 113.564 387.477 112.119C387.771 110.677 388.249 108.219 388.537 106.659C388.825 105.101 389.344 101.982 389.691 99.7287C390.036 97.4774 390.512 93.9324 390.745 91.8533C390.979 89.7742 391.267 86.7983 391.385 85.238C391.502 83.6797 391.599 80.5841 391.599 78.3601C391.599 76.1361 391.498 73.3954 391.376 72.2698C391.252 71.1441 390.977 69.4199 390.762 68.437C390.55 67.4563 390.177 66.108 389.935 65.4444C389.506 64.2641 389.473 64.2326 388.497 64.0373C387.948 63.9281 386.74 63.7748 385.815 63.6971C384.889 63.6194 382.95 63.6656 381.503 63.8021C380.058 63.9386 377.692 64.2893 376.245 64.5833C374.8 64.8795 372.006 65.5746 370.04 66.1332C368.073 66.6898 364.949 67.6831 363.098 68.3404C361.247 68.9957 358.597 70.0457 357.209 70.6737C355.821 71.2995 353.408 72.505 351.845 73.3513C350.283 74.1977 347.916 75.5816 346.587 76.4301C345.258 77.2764 343.365 78.5302 342.38 79.2169C341.396 79.9037 339.41 81.3716 337.963 82.4805C336.518 83.5873 334.011 85.6307 332.395 87.0188C330.778 88.407 327.9 91.0553 325.999 92.9034C324.098 94.7515 321.315 97.6349 319.811 99.3087C318.309 100.985 316.351 103.253 315.461 104.349C314.571 105.447 313.036 107.432 312.049 108.759C311.063 110.089 309.454 112.403 308.474 113.905C307.493 115.406 306.027 117.769 305.216 119.155C304.404 120.541 303.167 122.714 302.471 123.985C301.772 125.256 300.54 127.618 299.73 129.235C298.92 130.852 297.763 133.263 297.16 134.591C296.554 135.92 295.639 137.999 295.121 139.211C294.606 140.425 293.657 142.739 293.016 144.356C292.372 145.973 291.375 148.619 290.799 150.236C290.223 151.854 289.468 154.027 289.12 155.067C288.776 156.106 288.258 157.713 287.972 158.637C287.686 159.561 287.074 161.594 286.611 163.152C286.148 164.713 285.309 167.783 284.745 169.978C284.182 172.172 283.387 175.48 282.979 177.328C282.573 179.176 281.954 182.154 281.609 183.943C281.262 185.735 280.745 188.616 280.455 190.349C280.166 192.081 279.647 195.721 279.3 198.434C278.953 201.15 278.515 205.448 278.328 207.99C278.141 210.531 277.947 212.916 277.897 213.292C277.846 213.668 277.712 213.929 277.596 213.87C277.48 213.813 277.243 213.292 277.07 212.715C276.898 212.137 276.66 211.665 276.544 211.665C276.429 211.665 276.193 212.137 276.018 212.715C275.846 213.292 275.608 213.813 275.493 213.87C275.377 213.929 275.238 213.668 275.186 213.292C275.133 212.916 275.032 211.619 274.96 210.405C274.891 209.193 274.695 206.736 274.527 204.944C274.359 203.155 273.987 199.894 273.698 197.699C273.41 195.504 272.935 192.245 272.643 190.454C272.35 188.664 271.826 185.735 271.479 183.943C271.134 182.154 270.516 179.176 270.11 177.328C269.702 175.48 268.907 172.172 268.343 169.978C267.78 167.783 266.94 164.713 266.478 163.152C266.015 161.594 265.403 159.561 265.117 158.637C264.831 157.713 264.313 156.106 263.968 155.067C263.621 154.027 262.866 151.854 262.29 150.236C261.713 148.619 260.716 145.973 260.073 144.356C259.431 142.739 258.483 140.425 257.967 139.211C257.454 137.999 256.449 135.731 255.736 134.171C255.023 132.612 253.462 129.445 252.269 127.135C251.077 124.825 249.266 121.517 248.25 119.785C247.232 118.052 245.597 115.406 244.617 113.905C243.635 112.403 242.026 110.089 241.039 108.759C240.053 107.432 238.675 105.636 237.977 104.769C237.278 103.904 235.758 102.108 234.597 100.779C233.436 99.4515 231.111 96.9608 229.433 95.245C227.752 93.5292 225.054 90.9251 223.434 89.4592C221.814 87.9912 219.686 86.1263 218.701 85.3136C217.719 84.5008 215.921 83.079 214.705 82.1508C213.489 81.2225 211.55 79.805 210.393 79.0006C209.236 78.1942 207.343 76.9425 206.186 76.2138C205.029 75.4871 202.806 74.1997 201.243 73.3534C199.683 72.5071 197.268 71.2995 195.88 70.6737C194.491 70.0457 191.841 68.9957 189.99 68.3404C188.139 67.6831 185.016 66.6898 183.049 66.1332C181.082 65.5746 178.291 64.8794 176.844 64.5854C175.399 64.2935 173.174 63.9512 171.901 63.8294C170.629 63.7055 169.068 63.6215 168.431 63.6404C167.793 63.6593 166.943 63.7097 166.538 63.7517ZM171.781 74.8949C171.985 74.3489 172.072 74.3174 173.317 74.3174C174.042 74.3195 175.536 74.4623 176.634 74.6387C177.732 74.813 179.484 75.1994 180.525 75.4976C181.566 75.7937 183.459 76.3965 184.732 76.8375C186.004 77.2764 188.276 78.1522 189.78 78.7843C191.284 79.4143 193.65 80.4602 195.038 81.1049C196.427 81.7497 198.555 82.8165 199.771 83.476C200.987 84.1333 203.115 85.4249 204.504 86.3468C205.892 87.2667 207.833 88.6401 208.815 89.3983C209.8 90.1543 211.645 91.6412 212.917 92.7018C214.19 93.7623 216.32 95.6587 217.65 96.9167C218.981 98.1767 221.169 100.34 222.515 101.726C223.861 103.11 225.887 105.284 227.016 106.554C228.146 107.825 229.988 109.998 231.107 111.384C232.226 112.77 233.951 114.992 234.942 116.32C235.93 117.649 237.628 120.058 238.715 121.675C239.8 123.292 241.365 125.749 242.19 127.135C243.016 128.521 244.405 131.073 245.275 132.806C246.146 134.538 247.421 137.279 248.107 138.896C248.79 140.513 249.924 143.348 250.624 145.196C251.325 147.044 252.526 150.4 253.294 152.652C254.061 154.905 255.075 158.024 255.542 159.582C256.011 161.142 256.813 163.883 257.326 165.672C257.837 167.464 258.813 171.149 259.494 173.863C260.176 176.578 261.16 180.736 261.682 183.103C262.203 185.472 262.917 188.874 263.268 190.664C263.619 192.455 264.097 194.912 264.328 196.124C264.559 197.338 265.079 200.362 265.483 202.844C265.884 205.329 266.457 209.061 266.751 211.14C267.048 213.219 267.479 216.527 267.712 218.49C267.946 220.454 268.274 223.383 268.442 225.001C268.61 226.618 268.939 230.352 269.172 233.296C269.405 236.242 269.692 240.495 269.809 242.746C269.925 245 270.02 247.835 270.015 251.252L269.422 250.307C269.096 249.788 268.446 248.511 267.979 247.472C267.51 246.432 266.841 244.779 266.49 243.797C266.139 242.816 265.615 241.398 265.325 240.646C265.037 239.897 264.454 238.525 264.031 237.601C263.609 236.677 262.479 234.363 261.522 232.456C260.563 230.551 259.042 227.668 258.142 226.051C257.24 224.433 255.839 221.976 255.027 220.59C254.215 219.204 252.511 216.417 251.241 214.395C249.968 212.375 247.635 208.783 246.054 206.415C244.472 204.048 242.101 200.597 240.787 198.749C239.472 196.901 236.973 193.499 235.236 191.189C233.497 188.879 230.832 185.43 229.315 183.523C227.796 181.618 225.041 178.262 223.19 176.068C221.339 173.873 218.466 170.566 216.804 168.717C215.145 166.869 211.175 162.753 207.987 159.569C204.798 156.386 201.054 152.788 199.666 151.574C198.278 150.36 195.96 148.422 194.513 147.267C193.067 146.112 190.842 144.432 189.57 143.535C188.297 142.638 186.499 141.452 185.573 140.899C184.648 140.345 183.512 139.473 183.049 138.961C182.46 138.308 181.972 137.401 181.425 135.941C180.994 134.794 180.207 132.438 179.673 130.705C179.141 128.973 178.237 125.854 177.664 123.775C177.09 121.696 176.297 118.672 175.9 117.055C175.504 115.438 174.837 112.462 174.419 110.439C174.002 108.419 173.386 105.017 173.054 102.879C172.719 100.743 172.303 97.6244 172.128 95.9485C171.954 94.2747 171.701 91.2023 171.567 89.1232C171.422 86.8823 171.371 83.331 171.443 80.4077C171.51 77.6943 171.661 75.212 171.781 74.8949ZM375.929 74.7227C377.086 74.519 378.718 74.3447 379.557 74.3342C381.034 74.3174 381.089 74.3363 381.305 74.8949C381.427 75.212 381.583 77.6943 381.648 80.4077C381.718 83.3079 381.667 86.9012 381.522 89.1232C381.387 91.2023 381.135 94.2747 380.96 95.9485C380.786 97.6244 380.369 100.743 380.035 102.879C379.703 105.017 379.086 108.419 378.67 110.439C378.251 112.462 377.584 115.438 377.189 117.055C376.791 118.672 375.998 121.696 375.424 123.775C374.852 125.854 373.948 128.973 373.416 130.705C372.881 132.438 372.095 134.794 371.663 135.941C371.117 137.401 370.629 138.308 370.04 138.961C369.577 139.473 368.441 140.345 367.516 140.899C366.59 141.452 364.792 142.638 363.519 143.535C362.247 144.432 360.023 146.112 358.576 147.267C357.131 148.422 354.811 150.36 353.423 151.574C352.035 152.788 348.291 156.386 345.102 159.569C341.913 162.753 337.946 166.869 336.285 168.717C334.625 170.566 331.83 173.779 330.075 175.858C328.319 177.937 325.562 181.293 323.948 183.313C322.335 185.336 319.592 188.879 317.855 191.189C316.115 193.499 313.65 196.855 312.378 198.644C311.103 200.435 308.734 203.884 307.113 206.31C305.489 208.735 303.356 211.997 302.372 213.555C301.385 215.115 299.841 217.619 298.941 219.12C298.041 220.622 296.43 223.411 295.361 225.316C294.295 227.222 292.612 230.387 291.623 232.351C290.635 234.315 289.48 236.677 289.057 237.601C288.635 238.525 288.052 239.897 287.764 240.646C287.474 241.398 286.95 242.816 286.596 243.797C286.245 244.779 285.604 246.386 285.172 247.367C284.741 248.35 284.091 249.624 283.073 251.252L283.069 249.257C283.067 248.161 283.164 245.277 283.284 242.851C283.403 240.426 283.738 235.56 284.026 232.036C284.312 228.514 284.83 223.222 285.175 220.275C285.517 217.331 286.041 213.219 286.338 211.14C286.632 209.061 287.204 205.329 287.606 202.844C288.01 200.362 288.529 197.338 288.759 196.124C288.99 194.912 289.468 192.455 289.821 190.664C290.174 188.874 290.887 185.472 291.409 183.103C291.928 180.736 292.913 176.578 293.594 173.863C294.276 171.149 295.252 167.464 295.763 165.672C296.276 163.883 297.078 161.142 297.547 159.582C298.014 158.024 299.027 154.905 299.795 152.652C300.563 150.4 301.764 147.044 302.464 145.196C303.165 143.348 304.296 140.513 304.982 138.896C305.668 137.279 306.94 134.538 307.811 132.806C308.68 131.073 310.07 128.521 310.897 127.135C311.723 125.749 313.288 123.292 314.374 121.675C315.461 120.058 317.159 117.649 318.147 116.32C319.138 114.992 320.863 112.77 321.982 111.384C323.101 109.998 324.943 107.825 326.073 106.554C327.204 105.284 329.228 103.11 330.57 101.724C331.914 100.338 334.103 98.1746 335.435 96.9167C336.768 95.6587 338.899 93.7623 340.172 92.7018C341.444 91.6412 343.289 90.1543 344.273 89.3983C345.258 88.6401 347.197 87.2667 348.585 86.3468C349.973 85.4249 352.102 84.1333 353.318 83.476C354.533 82.8165 356.662 81.7497 358.05 81.1049C359.439 80.4602 361.805 79.4206 363.309 78.7948C364.813 78.169 366.943 77.3394 368.041 76.9488C369.139 76.5582 370.891 75.9827 371.933 75.6677C372.974 75.3527 374.772 74.9285 375.929 74.7227ZM106.854 123.25L110.245 123.252C112.11 123.252 115.295 123.395 117.318 123.569C119.344 123.744 122.087 124.029 123.418 124.206C124.75 124.38 127.116 124.762 128.677 125.052C130.237 125.344 133.125 125.993 135.092 126.497C137.059 126.999 139.898 127.809 141.402 128.297C142.906 128.782 145.272 129.63 146.661 130.178C148.049 130.726 150.272 131.629 151.604 132.184C152.935 132.738 156.957 134.673 160.543 136.479C164.129 138.287 168.529 140.647 170.324 141.725C172.118 142.802 175.004 144.631 176.739 145.793C178.474 146.952 181.36 149.006 183.154 150.356C184.948 151.707 187.975 154.111 189.885 155.699C191.795 157.289 194.348 159.496 195.564 160.603C196.78 161.707 199.277 164.083 201.113 165.876C202.951 167.67 205.648 170.366 207.108 171.868C208.567 173.371 211.041 176.017 212.606 177.748C214.169 179.481 216.636 182.316 218.087 184.048C219.539 185.781 221.816 188.57 223.146 190.244C224.477 191.92 226.562 194.612 227.78 196.229C228.997 197.846 231.452 201.248 233.236 203.789C235.019 206.331 237.67 210.254 239.127 212.505C240.583 214.758 242.911 218.49 244.3 220.8C245.69 223.11 247.945 227.033 249.314 229.516C250.681 232 253.195 236.866 254.896 240.331C256.598 243.797 258.775 248.476 259.732 250.727C260.689 252.98 262.113 256.523 262.896 258.602C263.678 260.681 264.282 262.431 264.235 262.488C264.189 262.546 263.508 262.08 262.723 261.452C261.938 260.824 259.686 258.884 257.719 257.136C255.752 255.391 253.435 253.39 252.566 252.693C251.699 251.995 249.901 250.618 248.569 249.633C247.238 248.648 244.59 246.802 242.68 245.529C240.77 244.259 237.316 242.116 235.003 240.77C232.689 239.422 228.949 237.387 226.694 236.249C224.439 235.11 221.032 233.468 219.122 232.601C217.212 231.731 213.38 230.083 210.603 228.934C207.827 227.785 204.325 226.366 202.821 225.778C201.317 225.192 198.713 224.177 197.037 223.526C195.36 222.873 192.426 221.722 190.516 220.966C188.606 220.21 185.485 218.935 183.575 218.133C181.665 217.333 178.117 215.695 175.687 214.496C173.258 213.299 170.04 211.574 168.536 210.667C167.032 209.76 164.76 208.319 163.488 207.469C162.215 206.616 160.086 205.117 158.755 204.136C157.424 203.157 155.39 201.597 154.233 200.671C153.076 199.742 151.042 198.037 149.711 196.88C148.379 195.723 145.537 193.024 143.392 190.882C141.246 188.74 138.542 185.903 137.38 184.573C136.217 183.246 134.324 180.978 133.174 179.533C132.021 178.09 130.322 175.868 129.394 174.598C128.466 173.327 126.897 171.059 125.907 169.558C124.916 168.056 123.488 165.788 122.735 164.517C121.982 163.247 120.804 161.168 120.116 159.897C119.428 158.626 118.223 156.264 117.436 154.647C116.65 153.03 115.579 150.715 115.059 149.501C114.538 148.29 113.562 145.879 112.893 144.146C112.222 142.414 111.109 139.2 110.421 137.006C109.734 134.811 108.827 131.646 108.409 129.97C107.99 128.297 107.468 126.098 107.25 125.088L106.854 123.25ZM435.455 123.58C437.19 123.426 440.339 123.288 446.287 123.25L445.866 125.088C445.633 126.098 445.101 128.297 444.682 129.97C444.262 131.646 443.357 134.811 442.667 137.006C441.979 139.2 440.888 142.367 440.244 144.041C439.6 145.717 438.557 148.269 437.928 149.711C437.299 151.156 436.21 153.519 435.505 154.962C434.801 156.407 433.66 158.626 432.973 159.897C432.285 161.168 431.107 163.247 430.354 164.517C429.601 165.788 428.175 168.056 427.184 169.558C426.191 171.059 424.622 173.327 423.697 174.598C422.769 175.868 421.068 178.09 419.917 179.533C418.764 180.978 416.871 183.246 415.708 184.573C414.545 185.903 411.84 188.742 409.697 190.886C407.551 193.03 404.71 195.729 403.378 196.884C402.049 198.039 400.013 199.742 398.856 200.671C397.699 201.597 395.665 203.157 394.334 204.136C393.004 205.117 390.874 206.616 389.601 207.469C388.328 208.319 386.057 209.76 384.553 210.667C383.049 211.574 379.831 213.299 377.401 214.496C374.972 215.695 371.424 217.333 369.514 218.133C367.606 218.935 364.482 220.21 362.573 220.966C360.665 221.722 357.731 222.873 356.052 223.526C354.376 224.177 351.772 225.192 350.268 225.778C348.764 226.366 345.262 227.785 342.485 228.934C339.709 230.083 335.876 231.731 333.967 232.601C332.059 233.468 328.651 235.11 326.394 236.249C324.14 237.387 320.4 239.422 318.086 240.77C315.772 242.116 312.319 244.259 310.409 245.529C308.501 246.802 305.851 248.648 304.519 249.633C303.19 250.618 301.392 251.995 300.523 252.693C299.656 253.39 297.336 255.391 295.37 257.136C293.403 258.884 291.152 260.824 290.366 261.452C289.581 262.08 288.9 262.546 288.853 262.488C288.809 262.431 289.411 260.681 290.193 258.602C290.978 256.523 292.402 252.98 293.359 250.727C294.316 248.476 296.491 243.797 298.194 240.331C299.896 236.866 302.407 232 303.777 229.516C305.144 227.033 307.401 223.11 308.789 220.8C310.18 218.49 312.506 214.758 313.963 212.505C315.419 210.254 318.069 206.331 319.853 203.789C321.639 201.248 324.093 197.846 325.311 196.229C326.527 194.612 328.611 191.92 329.943 190.244C331.274 188.57 333.55 185.781 335.001 184.048C336.455 182.316 338.92 179.481 340.485 177.748C342.048 176.017 344.521 173.371 345.981 171.868C347.441 170.366 350.14 167.67 351.976 165.876C353.814 164.083 356.311 161.707 357.524 160.603C358.74 159.496 361.296 157.289 363.204 155.699C365.113 154.111 368.189 151.673 370.04 150.281C371.891 148.89 374.919 146.744 376.77 145.511C378.621 144.281 381.461 142.485 383.081 141.523C384.7 140.559 388.959 138.293 392.546 136.483C396.132 134.673 400.156 132.738 401.485 132.184C402.817 131.629 405.04 130.726 406.428 130.178C407.816 129.63 410.183 128.782 411.687 128.297C413.19 127.809 416.03 126.999 417.997 126.497C419.963 125.993 422.851 125.342 424.412 125.052C425.975 124.76 428.387 124.374 429.776 124.191C431.164 124.01 433.719 123.733 435.455 123.58ZM41.2308 228.938C39.8531 231.162 37.7749 234.636 36.6118 236.656C35.4507 238.679 33.8122 241.608 32.9708 243.166C32.1295 244.727 30.4236 248.035 29.1805 250.517C27.9353 253.001 26.2358 256.498 25.405 258.287C24.572 260.079 23.1796 263.197 22.3109 265.218C21.4422 267.24 20.1149 270.453 19.3619 272.358C18.6089 274.265 17.3974 277.43 16.6738 279.393C15.9482 281.357 14.6272 285.186 13.7396 287.899C12.852 290.614 11.5668 294.773 10.8874 297.139C10.2059 299.508 9.129 303.478 8.49167 305.96C7.85645 308.444 7.08872 311.609 6.78794 312.995C6.48716 314.381 5.955 316.887 5.60373 318.561C5.25457 320.236 4.69507 323.118 4.36063 324.966C4.02619 326.814 3.42463 330.548 3.02078 333.261C2.61903 335.977 2.05113 340.37 1.75666 343.027C1.46429 345.684 1.12774 348.991 1.00995 350.377C0.890054 351.763 0.635556 355.355 0.442045 358.358C0.191742 362.228 0.0907709 366.783 0.0907709 374.004C0.0907709 382.471 0.1728 385.359 0.574546 391.12C0.841675 394.931 1.04991 398.571 1.0394 399.205C1.02888 399.841 0.875333 402.393 0.696545 404.875C0.519861 407.36 0.267464 412.179 0.139157 415.586C0.00243767 419.175 -0.0396366 424.522 0.0402918 428.292C0.11391 431.872 0.315834 437.118 0.486207 439.947C0.656581 442.778 0.892158 446.226 1.00995 447.613C1.12774 448.999 1.46638 452.306 1.75875 454.963C2.05322 457.62 2.62324 462.015 3.02499 464.728C3.42673 467.444 3.99465 470.987 4.28702 472.604C4.58149 474.221 5.13889 477.104 5.52802 479.009C5.91714 480.916 6.52502 483.774 6.87838 485.362C7.23385 486.95 8.00159 490.117 8.58633 492.397C9.17317 494.678 9.89042 497.396 10.1849 498.435C10.4773 499.475 11.3207 502.31 12.059 504.736C12.7952 507.161 13.9121 510.658 14.5389 512.506C15.1636 514.354 16.2006 517.284 16.84 519.016C17.4794 520.749 18.6173 523.727 19.3683 525.632C20.1192 527.539 21.1772 530.137 21.7177 531.407C22.2583 532.678 23.4194 535.324 24.2986 537.287C25.1757 539.251 27.6114 544.26 29.7127 548.418C31.8119 552.576 34.6451 557.917 36.0081 560.284C37.369 562.653 39.5334 566.29 40.8164 568.369C42.0974 570.448 43.9484 573.378 44.9285 574.879C45.9087 576.381 47.8922 579.311 49.3372 581.39C50.7822 583.469 53.3105 586.966 54.9574 589.16C56.6044 591.355 58.9728 594.427 60.2222 595.986C61.4716 597.546 63.9767 600.57 65.7899 602.706C67.6051 604.844 70.7833 608.433 72.853 610.684C74.9248 612.934 78.5111 616.67 80.8248 618.986C83.1385 621.302 86.3104 624.379 87.8711 625.826C89.4339 627.273 91.7519 629.388 93.0244 630.526C94.297 631.664 97.2312 634.17 99.5449 636.094C101.859 638.017 105.22 640.728 107.012 642.121C108.806 643.511 111.503 645.548 113.007 646.645C114.51 647.739 117.02 649.526 118.58 650.616C120.143 651.704 122.794 653.499 124.47 654.606C126.148 655.713 128.94 657.494 130.675 658.563C132.41 659.632 134.257 660.768 134.777 661.087C135.298 661.406 136.954 662.374 138.457 663.24C139.961 664.105 142.755 665.665 144.662 666.707C146.572 667.746 150.169 669.616 152.655 670.857C155.144 672.098 159.024 673.963 161.279 674.998C163.536 676.036 166.376 677.306 167.589 677.827C168.805 678.346 171.266 679.362 173.058 680.087C174.852 680.809 178.022 682.04 180.104 682.817C182.187 683.596 186.257 685.022 189.149 685.986C192.041 686.95 196.894 688.454 199.929 689.325C202.966 690.197 207.179 691.331 209.289 691.845C211.401 692.36 214.169 693.017 215.441 693.307C216.714 693.595 218.891 694.067 220.279 694.357C221.667 694.645 224.366 695.168 226.274 695.518C228.183 695.869 231.543 696.438 233.741 696.781C235.939 697.125 239.63 697.639 241.944 697.925C244.257 698.213 247.192 698.545 248.464 698.666C249.737 698.788 252.435 699.028 254.459 699.198C256.484 699.37 260.081 699.62 262.452 699.754C264.824 699.891 271.166 700 276.544 700C281.925 700 288.266 699.891 290.637 699.754C293.01 699.62 296.606 699.37 298.63 699.198C300.655 699.028 303.352 698.788 304.624 698.666C305.897 698.545 308.831 698.213 311.145 697.925C313.459 697.639 317.15 697.125 319.348 696.781C321.546 696.438 324.907 695.869 326.815 695.518C328.725 695.168 331.422 694.645 332.81 694.357C334.198 694.067 336.375 693.595 337.648 693.307C338.92 693.017 341.665 692.366 343.747 691.858C345.83 691.352 349.71 690.314 352.371 689.554C355.032 688.794 358.866 687.643 360.89 686.996C362.915 686.349 366.512 685.131 368.883 684.289C371.255 683.447 374.663 682.191 376.455 681.498C378.249 680.805 381.183 679.629 382.975 678.888C384.77 678.144 387.988 676.743 390.127 675.775C392.268 674.807 396.433 672.822 399.382 671.365C402.333 669.907 406.354 667.839 408.321 666.764C410.288 665.69 413.127 664.105 414.631 663.24C416.135 662.374 417.793 661.406 418.312 661.087C418.834 660.768 420.678 659.632 422.414 658.561C424.149 657.49 426.799 655.809 428.303 654.824C429.807 653.84 432.457 652.044 434.193 650.834C435.928 649.625 438.578 647.739 440.082 646.642C441.586 645.548 444.285 643.511 446.077 642.121C447.871 640.728 451.23 638.017 453.544 636.094C455.857 634.17 458.792 631.664 460.064 630.526C461.337 629.388 463.657 627.273 465.218 625.826C466.78 624.379 469.95 621.302 472.264 618.986C474.578 616.67 478.166 612.934 480.238 610.684C482.307 608.433 485.486 604.844 487.299 602.706C489.112 600.57 491.543 597.64 492.7 596.196C493.859 594.753 495.992 592.012 497.439 590.105C498.888 588.2 501.232 584.987 502.651 582.965C504.069 580.945 506.292 577.683 507.592 575.719C508.89 573.756 510.998 570.448 512.276 568.369C513.553 566.29 515.497 563.031 516.593 561.124C517.688 559.219 519.348 556.241 520.278 554.508C521.207 552.776 523.142 548.996 524.575 546.108C526.007 543.22 527.9 539.251 528.784 537.287C529.667 535.324 530.832 532.678 531.373 531.407C531.914 530.137 532.972 527.539 533.722 525.632C534.473 523.727 535.611 520.749 536.251 519.016C536.89 517.284 537.927 514.354 538.552 512.506C539.179 510.658 540.296 507.161 541.032 504.736C541.77 502.31 542.614 499.475 542.908 498.435C543.202 497.396 543.924 494.655 544.513 492.345C545.102 490.035 545.872 486.87 546.221 485.31C546.57 483.751 547.174 480.916 547.563 479.009C547.952 477.104 548.513 474.198 548.812 472.551C549.111 470.905 549.679 467.362 550.078 464.676C550.476 461.99 551.04 457.62 551.334 454.963C551.626 452.306 551.963 448.999 552.081 447.613C552.199 446.226 552.455 442.635 552.649 439.632C552.899 435.766 553 431.198 553 423.986C553 416.827 552.897 412.146 552.649 408.235C552.455 405.176 552.247 402.246 552.188 401.725C552.127 401.206 552.068 400.167 552.058 399.415C552.049 398.665 552.255 394.931 552.52 391.12C552.916 385.384 553 382.433 553 374.004C553 366.783 552.899 362.228 552.649 358.358C552.455 355.355 552.199 351.763 552.081 350.377C551.963 348.991 551.626 345.684 551.334 343.027C551.04 340.37 550.476 336 550.078 333.314C549.679 330.628 549.111 327.085 548.812 325.438C548.513 323.792 547.952 320.888 547.563 318.981C547.174 317.076 546.566 314.215 546.212 312.628C545.857 311.04 545.089 307.873 544.502 305.592C543.918 303.312 543.198 300.594 542.904 299.555C542.609 298.515 541.898 296.106 541.324 294.199C540.748 292.294 539.801 289.27 539.219 287.479C538.634 285.69 537.467 282.334 536.623 280.023C535.78 277.713 534.568 274.5 533.931 272.883C533.293 271.266 532.111 268.385 531.304 266.478C530.494 264.573 529.057 261.311 528.106 259.232C527.158 257.153 525.118 252.949 523.572 249.887C522.026 246.827 519.708 242.431 518.42 240.121C517.133 237.811 515.457 234.882 514.695 233.611C513.934 232.34 512.428 229.86 511.351 228.098L509.388 224.896C504.498 224.896 503.078 224.944 503.078 225.001C503.078 225.059 504.01 226.689 505.146 228.623C506.282 230.557 508.116 233.796 509.218 235.816C510.322 237.839 511.927 240.863 512.785 242.536C513.646 244.212 515.116 247.188 516.054 249.152C516.994 251.115 518.303 253.951 518.963 255.452C519.624 256.954 520.776 259.648 521.523 261.437C522.27 263.229 523.405 266.064 524.045 267.738C524.686 269.414 525.894 272.721 526.731 275.088C527.568 277.457 528.689 280.765 529.223 282.439C529.758 284.115 530.721 287.328 531.367 289.579C532.012 291.832 532.866 294.951 533.264 296.509C533.664 298.07 534.364 300.951 534.823 302.915C535.281 304.878 536.045 308.423 536.518 310.79C536.993 313.159 537.702 317.08 538.093 319.506C538.485 321.931 539.048 325.711 539.343 327.906C539.637 330.101 540.07 333.881 540.304 336.307C540.537 338.732 540.731 340.906 540.733 341.137C540.735 341.391 540.666 341.473 540.561 341.347C540.464 341.231 539.932 339.719 539.379 337.987C538.825 336.254 537.635 332.806 536.732 330.321C535.83 327.839 534.551 324.437 533.893 322.761C533.232 321.087 532.05 318.204 531.266 316.355C530.481 314.507 529.017 311.2 528.014 309.005C527.011 306.81 524.693 302.085 522.865 298.504C521.037 294.924 518.431 290.058 517.074 287.689C515.718 285.322 513.559 281.683 512.279 279.603C510.998 277.524 508.661 273.887 507.085 271.518C505.51 269.151 503.381 266.033 502.355 264.588C501.326 263.145 499.391 260.499 498.051 258.707C496.714 256.918 494.253 253.751 492.587 251.672C490.919 249.593 488.59 246.758 487.41 245.372C486.232 243.986 483.519 240.915 481.384 238.546C479.247 236.179 475.423 232.139 472.884 229.568L468.267 224.893C464.763 224.896 463.745 224.967 463.743 225.053C463.741 225.139 464.082 225.542 464.5 225.946C464.919 226.351 466.98 228.525 469.081 230.776C471.183 233.029 473.711 235.77 474.704 236.866C475.694 237.965 477.585 240.138 478.906 241.696C480.229 243.257 482.406 245.903 483.748 247.577C485.088 249.253 487.32 252.134 488.708 253.982C490.094 255.83 492.036 258.476 493.02 259.862C494.004 261.248 495.944 264.084 497.33 266.163C498.716 268.242 500.704 271.314 501.747 272.988C502.79 274.664 504.5 277.499 505.546 279.288C506.591 281.08 508.276 284.056 509.292 285.904C510.306 287.752 512.436 291.864 514.026 295.039C515.615 298.217 517.77 302.753 518.816 305.12C519.859 307.489 521.279 310.796 521.971 312.47C522.661 314.146 523.986 317.548 524.914 320.031C525.841 322.515 527.309 326.673 528.178 329.271C529.049 331.871 530.424 336.313 531.236 339.142C532.048 341.973 533.091 345.799 533.554 347.647C534.017 349.495 534.728 352.473 535.136 354.263C535.542 356.054 536.255 359.456 536.718 361.823C537.183 364.192 537.843 367.878 538.184 370.013C538.527 372.151 539.052 375.742 539.353 377.994C539.654 380.247 540.02 383.318 540.165 384.819C540.394 387.18 540.382 388.018 540.077 391.014C539.883 392.921 539.524 395.992 539.275 397.84C539.027 399.688 538.493 403.233 538.087 405.715C537.683 408.2 536.873 412.593 536.293 415.481C535.71 418.368 534.711 422.859 534.074 425.456C533.439 428.056 532.395 432.026 531.76 434.277C531.125 436.53 529.989 440.31 529.238 442.677C528.485 445.046 527.269 448.684 526.535 450.763C525.801 452.842 524.728 455.772 524.15 457.273C523.572 458.775 522.676 461.043 522.158 462.313C521.639 463.584 520.789 465.617 520.269 466.829C519.748 468.042 518.542 470.735 517.59 472.814C516.639 474.893 514.866 478.579 513.65 481.004C512.436 483.43 510.59 486.975 509.546 488.88C508.503 490.787 506.938 493.574 506.067 495.075C505.196 496.577 503.585 499.271 502.485 501.06C501.387 502.852 499.397 505.971 498.068 507.991C496.737 510.013 494.747 512.943 493.643 514.501C492.54 516.062 490.551 518.802 489.221 520.592C487.894 522.383 485.481 525.502 483.864 527.522C482.246 529.544 479.59 532.757 477.96 534.662C476.332 536.569 473.877 539.356 472.506 540.858C471.132 542.359 467.819 545.801 465.142 548.506C462.466 551.209 458.949 554.66 457.328 556.172C455.706 557.682 452.915 560.2 451.123 561.762C449.331 563.327 446.493 565.738 444.815 567.117C443.138 568.499 440.156 570.866 438.189 572.378C436.222 573.89 433.242 576.116 431.563 577.324C429.887 578.534 427.188 580.426 425.569 581.53C423.949 582.633 421.276 584.401 419.627 585.456C417.98 586.512 414.997 588.358 413.001 589.559C411.007 590.763 407.48 592.798 405.166 594.085C402.852 595.372 398.547 597.638 395.596 599.123C392.647 600.606 388.671 602.53 386.761 603.397C384.854 604.264 382.25 605.417 380.977 605.961C379.705 606.505 377.387 607.467 375.824 608.099C374.263 608.731 370.997 609.985 368.567 610.886C366.138 611.785 361.973 613.238 359.312 614.112C356.652 614.985 352.676 616.22 350.478 616.854C348.28 617.491 344.589 618.493 342.275 619.083C339.961 619.675 336.175 620.572 333.861 621.076C331.548 621.58 328.662 622.187 327.446 622.422C326.232 622.657 323.866 623.088 322.188 623.377C320.511 623.667 317.245 624.186 314.931 624.528C312.617 624.873 308.547 625.391 305.886 625.681C303.226 625.973 299.061 626.353 296.632 626.53C294.202 626.706 289.991 626.945 287.272 627.063C284.554 627.181 279.773 627.277 276.65 627.277C273.526 627.277 268.699 627.181 265.922 627.063C263.146 626.948 258.886 626.706 256.457 626.53C254.028 626.353 249.863 625.973 247.202 625.681C244.541 625.391 240.471 624.873 238.158 624.528C235.844 624.186 232.579 623.667 230.901 623.377C229.225 623.088 226.858 622.657 225.643 622.422C224.429 622.187 221.541 621.58 219.227 621.076C216.914 620.572 213.127 619.675 210.814 619.083C208.5 618.493 204.809 617.489 202.611 616.852C200.412 616.216 197.573 615.359 196.3 614.952C195.028 614.542 192.521 613.708 190.726 613.099C188.934 612.49 185.811 611.375 183.785 610.621C181.762 609.867 178.828 608.733 177.265 608.099C175.704 607.467 173.384 606.505 172.112 605.961C170.839 605.417 168.237 604.262 166.327 603.395C164.419 602.525 160.869 600.822 158.44 599.608C156.01 598.394 152.792 596.742 151.288 595.935C149.784 595.127 147.182 593.686 145.504 592.733C143.827 591.777 141.082 590.166 139.404 589.152C137.728 588.137 135.029 586.459 133.409 585.422C131.79 584.387 129.139 582.633 127.52 581.53C125.9 580.426 123.204 578.534 121.525 577.324C119.849 576.116 116.868 573.89 114.902 572.378C112.935 570.866 109.952 568.499 108.276 567.12C106.598 565.74 103.379 562.986 101.122 561.002C98.8676 559.017 95.3655 555.8 93.3399 553.851C91.3144 551.902 88.1803 548.796 86.3777 546.948C84.5751 545.1 82.0132 542.407 80.686 540.963C79.3588 539.52 76.8579 536.685 75.131 534.662C73.402 532.642 70.7075 529.38 69.1405 527.417C67.5714 525.453 65.2009 522.383 63.8716 520.592C62.5401 518.802 60.5503 516.062 59.4482 514.501C58.3439 512.943 56.3541 510.013 55.0227 507.991C53.6933 505.971 51.7035 502.852 50.6056 501.06C49.5055 499.271 47.8943 496.577 47.0235 495.075C46.1527 493.574 44.5878 490.787 43.5445 488.88C42.5012 486.975 40.6545 483.43 39.4408 481.004C38.2251 478.579 36.4519 474.893 35.5012 472.814C34.5484 470.735 33.3431 468.042 32.8215 466.829C32.3019 465.617 31.4522 463.584 30.9326 462.313C30.4152 461.043 29.5192 458.775 28.9407 457.273C28.3623 455.772 27.2896 452.842 26.5555 450.763C25.8214 448.684 24.6057 445.046 23.8527 442.677C23.1018 440.31 21.9659 436.53 21.3307 434.277C20.6955 432.026 19.6522 428.056 19.0149 425.456C18.3797 422.859 17.3827 418.368 16.8 415.481C16.2195 412.593 15.4539 408.483 15.0984 406.345C14.745 404.21 14.215 400.713 13.9247 398.575C13.6323 396.439 13.2222 393.083 13.0139 391.12C12.6501 387.703 12.6501 387.402 13.0034 384.084C13.2053 382.179 13.5734 379.107 13.8216 377.259C14.0698 375.411 14.5957 371.914 14.989 369.488C15.3845 367.063 16.1438 362.904 16.678 360.248C17.2102 357.591 17.9274 354.237 18.2703 352.792C18.6152 351.35 19.181 349.033 19.5323 347.647C19.8836 346.261 20.584 343.615 21.0909 341.767C21.5978 339.919 22.5801 336.565 23.2742 334.311C23.9683 332.06 25.1483 328.469 25.895 326.331C26.6438 324.195 27.5841 321.549 27.9879 320.451C28.3918 319.354 29.3825 316.803 30.1923 314.78C31.0021 312.76 32.3756 309.452 33.2464 307.43C34.1172 305.41 35.7031 301.913 36.7716 299.66C37.8401 297.408 39.4219 294.195 40.2885 292.519C41.1551 290.845 42.7137 287.916 43.7527 286.009C44.7939 284.104 46.4998 281.08 47.5451 279.288C48.5905 277.499 50.3006 274.664 51.3438 272.988C52.3871 271.314 54.3748 268.242 55.7588 266.163C57.1429 264.084 59.0506 261.297 59.9971 259.967C60.9416 258.64 62.6642 256.278 63.8232 254.717C64.9822 253.159 67.0498 250.464 68.4149 248.732C69.7821 246.999 72.3882 243.834 74.2034 241.696C76.0207 239.561 78.6688 236.536 80.0865 234.976C81.5063 233.418 84.1692 230.557 86.0054 228.623C87.8417 226.689 89.3435 225.059 89.3435 225.001C89.3435 224.944 88.3507 224.896 87.135 224.896H84.9264C82.4423 227.256 79.8152 229.925 77.4868 232.351C75.1583 234.777 71.8665 238.322 70.1712 240.226C68.4759 242.133 65.975 245.015 64.6141 246.632C63.2532 248.249 61.4232 250.469 60.5461 251.567C59.669 252.663 58.6194 253.99 58.2135 254.518C57.8096 255.043 56.6191 256.603 55.5716 257.983C54.522 259.363 52.7195 261.816 51.5647 263.433C50.4099 265.05 48.4664 267.839 47.2443 269.628C46.0244 271.419 43.982 274.538 42.7095 276.558C41.4348 278.581 39.7984 281.227 39.0727 282.439C38.3471 283.652 36.8053 286.299 35.6484 288.319C34.4916 290.341 32.0495 294.924 30.2238 298.504C28.396 302.085 26.0801 306.81 25.0747 309.005C24.0714 311.2 22.6832 314.318 21.9933 315.935C21.3013 317.553 20.1213 320.436 19.3683 322.341C18.6152 324.248 17.2607 327.839 16.3583 330.321C15.456 332.806 14.2655 336.254 13.7123 337.987C13.1591 339.719 12.6269 341.231 12.5302 341.347C12.425 341.473 12.3556 341.391 12.3577 341.137C12.3598 340.906 12.5533 338.732 12.7868 336.307C13.0203 333.881 13.4472 330.149 13.7333 328.011C14.0194 325.875 14.4947 322.614 14.7871 320.766C15.0795 318.918 15.6074 315.847 15.9629 313.94C16.3162 312.036 16.9304 308.963 17.3259 307.115C17.7213 305.267 18.1925 303.142 18.3713 302.39C18.5521 301.64 19.0759 299.513 19.5386 297.664C19.9993 295.816 21.0404 291.99 21.8523 289.159C22.6643 286.33 24.0399 281.888 24.9107 279.288C25.7794 276.691 27.2328 272.579 28.1372 270.153C29.0417 267.727 30.4888 264.042 31.3512 261.963C32.2157 259.883 33.6523 256.53 34.5462 254.507C35.4402 252.487 37.5183 248.14 39.1653 244.847C40.8122 241.556 43.1322 237.114 44.3207 234.976C45.5091 232.84 47.2759 229.745 48.2456 228.098C49.2173 226.452 50.0103 225.059 50.0103 225.001C50.0103 224.944 48.5989 224.896 46.8742 224.896H43.7359L41.2308 228.938ZM19.7279 478.327C19.2883 476.624 19.0191 475.229 19.1264 475.229C19.2357 475.229 20.1844 477.38 21.2382 480.007C22.2899 482.634 24.0903 486.817 25.2346 489.3C26.3809 491.784 28.6252 496.367 30.2217 499.485C31.8203 502.604 34.0036 506.716 35.0763 508.621C36.1469 510.528 37.7854 513.363 38.7151 514.921C39.6448 516.482 41.2098 519.033 42.1899 520.592C43.1722 522.152 45.2062 525.271 46.7143 527.522C48.2203 529.775 50.5446 533.129 51.8802 534.977C53.2137 536.825 55.2035 539.52 56.3015 540.963C57.3995 542.407 59.4376 545.005 60.8322 546.736C62.2267 548.468 64.7844 551.541 66.5176 553.561C68.2487 555.584 70.7517 558.421 72.079 559.864C73.4041 561.309 76.0564 564.127 77.9726 566.13C79.8888 568.134 83.4919 571.687 85.9781 574.027C88.4664 576.366 91.4006 579.082 92.4986 580.06C93.5986 581.037 95.6326 582.814 97.0208 584.007C98.4091 585.201 101.438 587.69 103.752 589.538C106.065 591.388 109.567 594.095 111.534 595.555C113.501 597.015 116.199 598.968 117.529 599.894C118.86 600.822 120.705 602.099 121.63 602.735C122.556 603.37 124.781 604.835 126.573 605.995C128.368 607.154 131.396 609.044 133.304 610.199C135.214 611.352 138.1 613.053 139.719 613.977C141.339 614.901 144.084 616.424 145.819 617.361C147.555 618.297 151.768 620.431 155.179 622.101C158.593 623.772 163.277 625.965 165.591 626.971C167.905 627.977 171.645 629.535 173.899 630.436C176.156 631.337 179.942 632.78 182.313 633.643C184.686 634.506 188.377 635.781 190.516 636.476C192.657 637.173 195.592 638.091 197.037 638.515C198.484 638.941 200.612 639.555 201.769 639.88C202.926 640.203 205.341 640.848 207.133 641.314C208.927 641.779 211.813 642.491 213.548 642.896C215.283 643.299 218.312 643.963 220.279 644.366C222.246 644.771 225.701 645.433 227.956 645.838C230.213 646.245 234.046 646.865 236.475 647.218C238.904 647.569 243.023 648.092 245.625 648.379C248.229 648.667 252.156 649.043 254.354 649.213C256.552 649.385 260.481 649.641 263.083 649.784C265.687 649.927 271.744 650.042 276.544 650.042C281.346 650.042 287.404 649.927 290.006 649.784C292.61 649.641 296.537 649.385 298.735 649.213C300.933 649.043 304.862 648.667 307.464 648.379C310.068 648.092 314.184 647.569 316.614 647.218C319.043 646.865 322.878 646.245 325.132 645.838C327.389 645.433 330.843 644.771 332.81 644.366C334.776 643.961 337.948 643.265 339.856 642.818C341.766 642.371 345.125 641.533 347.323 640.953C349.521 640.374 352.504 639.561 353.949 639.145C355.396 638.729 358.66 637.723 361.205 636.911C363.75 636.096 368.058 634.623 370.776 633.636C373.495 632.649 377.471 631.139 379.61 630.28C381.751 629.422 385.678 627.76 388.339 626.588C391 625.417 395.781 623.169 398.961 621.596C402.143 620.021 405.93 618.093 407.375 617.31C408.822 616.527 411.093 615.269 412.423 614.515C413.754 613.761 415.883 612.53 417.155 611.781C418.428 611.031 420.843 609.569 422.519 608.53C424.197 607.49 427.416 605.411 429.67 603.909C431.927 602.408 434.908 600.373 436.296 599.39C437.684 598.405 440.288 596.508 442.08 595.173C443.875 593.837 447.187 591.267 449.442 589.461C451.699 587.652 454.68 585.197 456.068 584.007C457.456 582.814 459.492 581.039 460.59 580.06C461.69 579.082 464.706 576.289 467.294 573.85C469.883 571.414 474.056 567.246 476.572 564.589C479.087 561.932 481.946 558.862 482.924 557.764C483.902 556.667 485.643 554.674 486.792 553.339C487.94 552.001 490.212 549.26 491.838 547.248C493.462 545.234 495.689 542.407 496.785 540.963C497.879 539.52 499.637 537.157 500.691 535.712C501.743 534.27 503.575 531.67 504.761 529.937C505.947 528.204 508.072 524.991 509.483 522.797C510.895 520.602 512.954 517.294 514.058 515.446C515.162 513.598 516.944 510.528 518.014 508.621C519.087 506.716 521.271 502.604 522.867 499.485C524.466 496.367 526.71 491.784 527.856 489.3C529 486.817 530.828 482.636 531.916 480.011C533.003 477.384 533.964 475.233 534.051 475.233C534.139 475.231 533.838 476.624 533.386 478.327C532.932 480.03 532.328 482.275 532.042 483.314C531.756 484.354 531.184 486.339 530.771 487.725C530.359 489.111 529.539 491.757 528.948 493.605C528.355 495.453 527.269 498.666 526.535 500.745C525.799 502.825 524.962 505.141 524.676 505.891C524.388 506.643 523.633 508.579 522.995 510.196C522.358 511.813 521.273 514.459 520.581 516.076C519.891 517.693 518.545 520.718 517.592 522.797C516.639 524.876 514.866 528.561 513.652 530.987C512.436 533.413 510.539 537.052 509.433 539.073C508.328 541.095 506.48 544.354 505.325 546.318C504.172 548.282 502.189 551.543 500.918 553.563C499.648 555.586 497.513 558.845 496.177 560.809C494.839 562.772 492.753 565.75 491.539 567.424C490.326 569.1 488.576 571.463 487.652 572.674C486.729 573.888 484.72 576.44 483.193 578.345C481.664 580.252 479.194 583.225 477.705 584.956C476.216 586.686 473.427 589.805 471.509 591.886C469.588 593.967 465.708 597.953 462.885 600.747C460.06 603.538 456.474 606.975 454.911 608.387C453.35 609.8 450.57 612.24 448.731 613.813C446.895 615.384 443.866 617.89 442 619.379C440.137 620.87 436.954 623.321 434.929 624.829C432.905 626.339 429.309 628.913 426.936 630.553C424.566 632.194 420.92 634.617 418.838 635.938C416.756 637.259 413.207 639.426 410.95 640.754C408.696 642.081 405.145 644.097 403.063 645.233C400.98 646.369 396.864 648.491 393.913 649.944C390.964 651.399 386.656 653.428 384.343 654.453C382.029 655.478 378.764 656.878 377.086 657.563C375.41 658.248 372.286 659.47 370.145 660.281C368.006 661.091 364.171 662.458 361.626 663.322C359.081 664.183 354.965 665.493 352.476 666.232C349.99 666.972 345.966 668.089 343.537 668.717C341.108 669.345 337.889 670.149 336.386 670.504C334.882 670.859 331.474 671.583 328.813 672.115C326.153 672.646 321.988 673.402 319.558 673.795C317.129 674.188 312.87 674.801 310.093 675.154C307.317 675.508 302.254 676.029 298.84 676.313C295.428 676.598 290.364 676.926 287.587 677.044C284.811 677.161 279.842 677.258 276.544 677.258C273.248 677.258 268.278 677.161 265.502 677.044C262.725 676.926 257.614 676.594 254.143 676.307C250.673 676.019 245.61 675.496 242.89 675.145C240.173 674.794 235.96 674.185 233.53 673.793C231.101 673.4 226.936 672.646 224.275 672.115C221.615 671.583 218.207 670.859 216.703 670.504C215.199 670.149 211.981 669.345 209.552 668.717C207.122 668.089 203.101 666.972 200.612 666.232C198.126 665.493 194.008 664.183 191.463 663.322C188.918 662.458 185.085 661.091 182.944 660.281C180.805 659.47 177.681 658.248 176.003 657.563C174.326 656.878 171.06 655.478 168.746 654.453C166.432 653.428 162.127 651.399 159.176 649.944C156.227 648.491 152.108 646.369 150.026 645.233C147.944 644.097 144.395 642.081 142.138 640.754C139.884 639.426 136.333 637.259 134.251 635.938C132.168 634.617 128.525 632.194 126.153 630.553C123.782 628.913 120.185 626.339 118.16 624.829C116.136 623.321 112.954 620.87 111.09 619.379C109.225 617.89 106.196 615.384 104.36 613.813C102.521 612.24 99.7405 609.8 98.1777 608.387C96.617 606.975 93.0286 603.538 90.2059 600.747C87.3831 597.953 83.5024 593.967 81.582 591.886C79.6616 589.805 76.8726 586.686 75.3855 584.956C73.8963 583.225 71.4269 580.252 69.8978 578.345C68.3686 576.44 66.362 573.888 65.4386 572.674C64.5131 571.463 62.7652 569.1 61.5515 567.424C60.3379 565.75 58.2513 562.772 56.9136 560.809C55.5758 558.845 53.443 555.586 52.1726 553.563C50.9021 551.543 48.9186 548.282 47.766 546.318C46.6112 544.354 44.735 541.047 43.5971 538.968C42.4571 536.888 40.3347 532.778 38.8771 529.832C37.4195 526.888 35.2635 522.303 34.0856 519.646C32.9077 516.99 31.5069 513.73 30.9705 512.401C30.4341 511.074 29.5234 508.757 28.9428 507.256C28.3644 505.754 27.2896 502.825 26.5534 500.745C25.8193 498.666 24.734 495.453 24.1429 493.605C23.5519 491.757 22.7295 489.111 22.3172 487.725C21.9049 486.339 21.3349 484.354 21.0489 483.314C20.7628 482.275 20.1675 480.03 19.7279 478.327ZM187.386 302.312C187.372 302.413 187.079 305.141 186.738 308.375C186.398 311.609 185.924 316.028 185.689 318.193C185.451 320.358 185.258 322.297 185.256 322.498C185.256 322.82 185.672 322.906 188.568 323.181C190.392 323.355 192.106 323.496 192.378 323.496C192.769 323.496 192.931 323.319 193.147 322.656C193.299 322.194 194.147 319.407 195.03 316.46C195.913 313.516 196.727 310.893 196.837 310.633C197.011 310.223 197.238 310.145 198.562 310.043C199.401 309.979 202.308 309.956 205.021 309.99L209.956 310.055C210.254 311.206 210.336 321.408 210.334 334.311C210.332 346.845 210.25 358.036 210.153 359.185L209.972 361.271C202.312 362.537 200.078 362.921 200.065 362.942C200.055 362.961 200.126 364.349 200.225 366.023C200.326 367.699 200.478 369.138 200.562 369.224C200.648 369.308 209.095 369.356 219.332 369.329L237.947 369.278C238.198 364.396 238.244 362.959 238.214 362.934C238.183 362.911 235.962 362.533 233.278 362.094C228.93 361.384 228.387 361.252 228.293 360.878C228.234 360.647 228.074 357.245 227.937 353.317C227.767 348.397 227.735 340.986 227.838 329.481C227.923 320.299 228.053 312.172 228.131 311.42L228.272 310.055C236.586 309.973 239.413 310.022 239.92 310.108L240.842 310.265C244.239 320.194 245.292 323.135 245.372 323.206C245.454 323.28 247.2 323.231 249.255 323.101C251.447 322.962 252.989 322.78 252.989 322.656C252.989 322.54 252.843 321.36 252.665 320.031C252.484 318.703 252.059 315.442 251.718 312.785C251.377 310.129 250.931 306.645 250.727 305.044L250.357 302.133C244.489 302.352 241.176 302.503 239.209 302.61C237.243 302.717 228.156 302.803 219.017 302.803C209.878 302.801 200.745 302.715 198.719 302.61C196.696 302.505 193.322 302.354 191.225 302.274C189.113 302.194 187.401 302.213 187.386 302.312ZM357.735 318.806C356.868 318.903 347.904 319.052 337.816 319.138C319.72 319.294 319.474 319.302 319.363 319.716C319.3 319.947 319.247 320.963 319.247 321.973C319.243 323.805 319.245 323.811 319.821 323.949C320.141 324.027 321.346 324.342 322.503 324.651L324.607 325.212C325.126 327.812 325.193 331.378 325.212 343.657C325.233 356.52 325.183 359.548 324.922 361.237L324.607 363.278L319.243 364.553C319.247 367.565 319.296 368.65 319.352 368.911L319.453 369.383C350.508 369.537 360.091 369.64 360.785 369.711L362.047 369.839C363.767 363.545 364.642 360.349 365.103 358.673C365.564 356.999 365.915 355.611 365.885 355.59C365.858 355.569 364.697 355.308 363.309 355.012C361.921 354.716 360.774 354.498 360.759 354.525C360.743 354.554 359.655 356.533 358.341 358.923L355.947 363.268C354.481 363.453 351.12 363.497 347.533 363.486C343.947 363.476 340.479 363.404 339.825 363.329C339.168 363.251 338.584 363.142 338.525 363.083C338.464 363.026 338.337 359.359 338.243 354.937C338.091 347.891 338.108 346.872 338.384 346.698C338.558 346.589 340.214 346.496 342.065 346.494C343.916 346.492 346.448 346.561 347.693 346.65C349.763 346.795 349.954 346.843 349.954 347.227C349.954 347.458 350.118 348.712 350.32 350.012L350.688 352.377L355.631 352.372V334.731L350.688 334.836L349.828 340.507C341.856 340.601 339.21 340.57 338.804 340.496L338.068 340.364C338.333 328.267 338.459 324.71 338.52 324.651C338.579 324.594 341.389 324.512 344.765 324.472C348.585 324.426 351.435 324.487 352.319 324.63C353.595 324.838 353.757 324.92 353.921 325.438C354.02 325.756 354.744 327.482 355.526 329.271L356.95 332.526C360.9 331.966 362.095 331.798 362.152 331.793C362.211 331.789 361.849 329.637 361.351 327.009C360.852 324.384 360.284 321.44 360.088 320.465C359.893 319.493 359.638 318.682 359.523 318.663C359.407 318.647 358.604 318.71 357.735 318.806ZM258.035 320.083C258.032 320.575 257.974 321.591 257.902 322.341L257.77 323.706C263.426 325.161 263.482 325.189 263.588 325.806C263.646 326.152 263.808 330.405 263.949 335.256C264.151 342.193 264.149 345.961 263.947 352.897C263.806 357.749 263.642 362.05 263.585 362.453L263.482 363.188L257.824 364.553C258.03 368.052 258.125 369.14 258.167 369.226C258.211 369.312 263.688 369.383 270.339 369.383C276.992 369.383 282.472 369.312 282.516 369.226C282.56 369.14 282.631 368.077 282.674 366.863L282.749 364.658C281.445 364.274 280.263 363.942 279.279 363.675L277.491 363.188C277.276 361.073 277.135 357.467 277.039 353.813L276.86 347.17C282.076 346.925 286.005 346.912 288.954 346.986C291.905 347.057 294.347 347.141 294.381 347.173C294.415 347.202 294.345 350.629 294.227 354.788C294.11 358.946 293.96 362.537 293.897 362.768C293.805 363.104 293.249 363.335 291.125 363.923L288.468 364.658C288.683 367.995 288.792 369.058 288.849 369.173C288.919 369.31 293.197 369.383 301.049 369.383C310.537 369.383 313.162 369.327 313.231 369.121C313.28 368.976 313.375 367.89 313.442 366.706L313.564 364.553C308.158 363.201 308.106 363.175 308.007 362.558C307.952 362.211 307.796 360.464 307.664 358.673C307.504 356.493 307.456 350.978 307.523 341.977C307.584 333.581 307.712 327.906 307.862 326.856C307.994 325.932 308.124 325.159 308.152 325.138C308.179 325.117 309.418 324.785 310.903 324.403L313.606 323.706C313.414 322.568 313.358 321.551 313.356 320.713L313.353 319.191L288.849 319.184C288.607 320.898 288.536 321.917 288.532 322.551L288.525 323.706C293.256 325.027 293.809 325.26 293.901 325.596C293.965 325.827 294.11 329.229 294.225 333.156C294.339 337.084 294.377 340.345 294.307 340.402C294.236 340.461 290.708 340.536 286.466 340.572C282.223 340.608 278.351 340.584 277.859 340.519L276.965 340.402C276.971 336.088 277.066 332.711 277.182 330.111C277.295 327.513 277.459 325.319 277.546 325.237C277.632 325.155 278.791 324.798 280.12 324.447C281.452 324.094 282.604 323.737 282.682 323.651C282.762 323.565 282.762 322.526 282.682 321.341L282.539 319.189L258.035 319.191V320.083ZM112.903 388.097C112.037 388.194 110.333 388.473 109.117 388.715C107.904 388.956 105.962 389.467 104.805 389.849C103.649 390.231 101.85 390.97 100.809 391.493C99.7679 392.018 98.2303 392.928 97.391 393.516C96.5518 394.104 95.3192 395.129 94.6524 395.792C93.9857 396.456 93.0518 397.521 92.5806 398.155C92.1073 398.791 91.4238 399.9 91.0599 400.623C90.696 401.345 90.1428 402.763 89.8336 403.773C89.3183 405.451 89.2699 405.911 89.272 409.075C89.2741 411.995 89.3456 412.805 89.7368 414.221C89.9913 415.145 90.4415 416.422 90.7338 417.056C91.0283 417.692 91.7603 418.864 92.3576 419.662C92.9571 420.46 93.9205 421.535 94.4989 422.05C95.0773 422.562 96.3078 423.48 97.2333 424.087C98.1588 424.694 100.052 425.757 101.44 426.45C102.828 427.141 104.77 428.019 105.752 428.401C106.736 428.783 109.149 429.745 111.116 430.537C113.082 431.328 115.354 432.37 116.164 432.849C116.973 433.328 118.252 434.306 119.003 435.022C119.946 435.921 120.566 436.742 120.999 437.664C121.582 438.897 121.63 439.183 121.628 441.312C121.628 443.324 121.563 443.744 121.134 444.567C120.863 445.088 120.343 445.827 119.979 446.214C119.615 446.598 118.94 447.109 118.477 447.346C118.015 447.583 117.257 447.909 116.795 448.07C116.332 448.232 115.055 448.457 113.955 448.568C112.655 448.703 111.259 448.703 109.959 448.568C108.861 448.455 107.109 448.117 106.067 447.814C105.026 447.512 103.489 446.943 102.649 446.546C101.81 446.151 101.082 445.71 101.032 445.565C100.981 445.42 100.125 442.751 99.1284 439.632C98.1293 436.513 97.2838 433.867 97.248 433.752C97.2045 433.612 95.824 433.612 93.1065 433.752C90.8643 433.867 89.0406 434.01 89.0532 434.067C89.0659 434.126 89.1416 437.717 89.2194 442.047C89.2972 446.38 89.4192 450.301 89.4949 450.763C89.6232 451.578 89.6822 451.626 91.327 452.373C92.263 452.798 94.1623 453.522 95.5506 453.984C96.9388 454.444 99.5891 455.16 101.44 455.572C103.293 455.986 106.08 456.435 107.645 456.572C109.788 456.761 111.309 456.765 113.85 456.588C115.737 456.458 118.419 456.108 119.95 455.792C121.454 455.484 123.631 454.904 124.788 454.505C125.944 454.104 127.791 453.3 128.889 452.716C129.989 452.132 131.455 451.25 132.149 450.756C132.844 450.261 134.097 449.162 134.934 448.314C135.771 447.466 136.8 446.3 137.219 445.722C137.639 445.145 138.304 444.011 138.697 443.202C139.088 442.394 139.597 440.835 139.827 439.737C140.062 438.609 140.241 436.921 140.241 435.852C140.241 434.798 140.06 433.08 139.831 431.967C139.576 430.73 139.097 429.314 138.571 428.239C137.896 426.857 137.328 426.107 135.778 424.534C134.707 423.451 133.075 422.071 132.149 421.468C131.224 420.868 129.236 419.773 127.732 419.038C126.228 418.303 122.964 416.888 120.476 415.895C117.989 414.899 115.339 413.782 114.586 413.412C113.835 413.04 112.699 412.396 112.062 411.978C111.427 411.558 110.344 410.663 109.656 409.989C108.922 409.267 108.183 408.284 107.868 407.605C107.388 406.576 107.33 406.186 107.332 404.035C107.332 401.906 107.395 401.486 107.857 400.488C108.146 399.864 108.808 398.959 109.328 398.474C109.849 397.989 110.865 397.294 111.589 396.928C112.312 396.563 113.495 396.124 114.218 395.952C114.942 395.782 116.385 395.641 117.426 395.643C118.551 395.643 120.087 395.815 121.212 396.067C122.253 396.3 123.507 396.676 123.999 396.903C124.55 397.157 124.941 397.495 125.017 397.787C125.084 398.048 125.896 400.576 126.822 403.405C127.747 406.236 128.567 408.628 128.643 408.723C128.721 408.817 130.488 408.796 132.57 408.674C134.652 408.553 136.381 408.427 136.413 408.397C136.447 408.366 136.177 404.749 135.818 400.36C135.458 395.971 135.096 392.05 135.012 391.645C134.871 390.958 134.766 390.878 133.401 390.414C132.597 390.143 130.568 389.607 128.889 389.225C127.213 388.843 124.68 388.381 123.263 388.198C121.784 388.007 119.363 387.877 117.583 387.892C115.878 387.906 113.772 387.999 112.903 388.097ZM168.489 406.205L164.672 408.34C160.848 417.455 158.862 422.18 157.794 424.721C156.725 427.262 154.222 433.216 152.232 437.952C150.241 442.688 148.314 447.258 147.952 448.104L147.294 449.648L142.982 450.973C142.978 453.577 143.049 454.642 143.137 455.02L143.297 455.709L160.44 455.698C160.522 453.258 160.545 452.203 160.545 451.781V451.017C156.593 450.007 155.383 449.666 155.31 449.608C155.236 449.551 155.796 447.707 156.553 445.512C157.31 443.318 157.966 441.491 158.013 441.451C158.057 441.411 161.58 441.384 165.841 441.388C170.101 441.394 173.651 441.474 173.729 441.566C173.809 441.657 174.593 443.433 175.471 445.512C176.35 447.592 177.033 449.387 176.991 449.503C176.947 449.618 175.738 450.003 174.303 450.36L171.693 451.004C171.727 452.119 171.796 453.176 171.872 454.07L172.008 455.698C195.859 455.698 196.624 455.675 196.708 455.33C196.757 455.129 196.828 454.073 196.866 452.987L196.933 451.008C193.772 450.005 192.767 449.618 192.659 449.503C192.554 449.387 191.944 448.112 191.305 446.668C190.668 445.225 189.603 442.814 188.939 441.312C188.276 439.811 187.378 437.78 186.94 436.797C186.505 435.816 184.252 430.713 181.936 425.456C179.618 420.202 176.575 413.303 175.172 410.126C173.769 406.95 172.551 404.287 172.465 404.21C172.379 404.13 170.589 405.029 168.489 406.205ZM162.528 428.348C163.982 424.455 165.257 421.265 165.36 421.26C165.463 421.258 166.901 424.446 171.565 435.432L170.683 435.575C170.197 435.652 168.002 435.715 165.803 435.713C163.605 435.711 161.374 435.648 159.882 435.432L162.528 428.348ZM371.411 405.081C370.774 405.182 369.449 405.467 368.466 405.715C367.482 405.965 365.827 406.499 364.785 406.904C363.744 407.307 362.276 407.998 361.525 408.439C360.772 408.878 359.59 409.664 358.896 410.184C358.202 410.703 356.98 411.776 356.183 412.568C355.385 413.362 354.239 414.672 353.635 415.481C353.03 416.289 352.199 417.564 351.786 418.316C351.374 419.066 350.76 420.389 350.417 421.256C350.076 422.121 349.601 423.633 349.359 424.616C349.119 425.597 348.814 427.487 348.684 428.817C348.509 430.583 348.507 431.837 348.676 433.489C348.802 434.73 349.107 436.572 349.355 437.585C349.601 438.595 350.108 440.13 350.478 440.997C350.85 441.862 351.555 443.234 352.045 444.042C352.537 444.851 353.473 446.166 354.13 446.964C354.784 447.762 356.077 449.049 357.003 449.824C357.928 450.599 359.205 451.563 359.842 451.966C360.478 452.369 361.613 453.01 362.366 453.388C363.117 453.766 364.514 454.346 365.469 454.677C366.422 455.007 368.079 455.467 369.15 455.7C370.218 455.933 372.183 456.221 373.514 456.341C374.844 456.462 376.69 456.5 377.616 456.425C378.541 456.351 380.291 456.072 381.507 455.805C382.721 455.536 384.568 454.99 385.609 454.589C386.65 454.188 388.305 453.398 389.29 452.833C390.272 452.269 391.786 451.275 392.655 450.628C393.522 449.979 394.929 448.705 395.783 447.795C396.635 446.886 397.834 445.386 398.448 444.462C399.062 443.538 399.899 442.072 400.309 441.207C400.717 440.34 401.283 438.828 401.567 437.847C401.851 436.864 402.198 435.211 402.339 434.172C402.501 432.973 402.554 430.973 402.482 428.712C402.394 425.849 402.268 424.744 401.851 423.146C401.565 422.048 401.037 420.441 400.677 419.576C400.318 418.709 399.529 417.197 398.923 416.216C398.32 415.233 397.064 413.639 396.134 412.673C395.202 411.707 393.827 410.455 393.076 409.89C392.323 409.327 390.998 408.492 390.131 408.038C389.262 407.582 387.891 406.961 387.081 406.656C386.271 406.35 384.662 405.862 383.505 405.57C381.654 405.104 380.87 405.031 376.985 404.97C374.556 404.932 372.046 404.982 371.411 405.081ZM372.883 411.104C373.172 411.047 374.36 411.016 375.523 411.035C377.498 411.066 377.738 411.119 379.204 411.841C380.226 412.345 381.19 413.038 381.98 413.836C382.645 414.508 383.505 415.533 383.895 416.111C384.284 416.688 384.894 417.822 385.249 418.631C385.607 419.44 386.086 420.714 386.313 421.466C386.541 422.216 386.825 423.304 386.942 423.881C387.058 424.459 387.268 426.112 387.409 427.556C387.563 429.146 387.615 431.545 387.54 433.647C387.474 435.552 387.275 437.914 387.098 438.897C386.923 439.878 386.534 441.39 386.236 442.257C385.939 443.123 385.422 444.305 385.091 444.882C384.759 445.46 383.958 446.428 383.312 447.035C382.666 447.64 381.64 448.369 381.034 448.654C380.426 448.938 379.219 449.28 378.352 449.412C377.164 449.595 376.411 449.595 375.302 449.414C374.492 449.282 373.214 448.877 372.463 448.514C371.548 448.075 370.601 447.363 369.606 446.369C368.786 445.55 367.728 444.221 367.251 443.412C366.775 442.604 366.102 441.232 365.757 440.367C365.412 439.5 364.935 438.036 364.695 437.112C364.455 436.188 364.167 434.722 364.055 433.857C363.944 432.989 363.849 430.627 363.845 428.607C363.843 426.454 363.961 424.19 364.129 423.146C364.289 422.163 364.63 420.651 364.886 419.786C365.143 418.919 365.698 417.549 366.121 416.743C366.542 415.937 367.457 414.674 368.151 413.939C369.059 412.973 369.823 412.406 370.885 411.904C371.695 411.522 372.593 411.161 372.883 411.104ZM232.693 405.302C231.305 405.381 223.283 405.461 214.867 405.476L199.565 405.505C199.394 407.702 199.3 408.742 199.245 409.233C199.144 410.115 199.153 410.128 199.933 410.323C200.366 410.434 201.525 410.722 202.51 410.963C203.492 411.207 204.417 411.472 204.565 411.554C204.741 411.65 204.907 412.627 205.05 414.431C205.168 415.932 205.263 422.642 205.259 429.342C205.254 436.041 205.145 443.318 205.019 445.512C204.893 447.707 204.737 449.549 204.674 449.608C204.611 449.664 203.412 450.005 202.009 450.364L199.46 451.015C199.552 453.749 199.624 454.801 199.676 455.12L199.775 455.698H225.436C225.617 452.035 225.64 450.948 225.605 450.916C225.569 450.887 224.027 450.576 222.176 450.227C220.325 449.881 218.8 449.574 218.788 449.549C218.775 449.524 218.657 448.274 218.523 446.773C218.39 445.271 218.283 441.655 218.283 438.74L218.285 433.437C226.408 433.517 228.819 433.588 228.882 433.647C228.945 433.704 229.143 434.838 229.319 436.167C229.494 437.494 229.687 438.84 229.746 439.16L229.854 439.737H235.112V421.676H229.854C229.692 422.571 229.498 423.822 229.317 425.036C229.136 426.248 228.939 427.288 228.878 427.346C228.817 427.403 226.408 427.475 223.524 427.504L218.285 427.556C218.108 426.498 218.085 422.838 218.119 418.74L218.18 411.291C219.646 410.989 222.675 410.9 225.857 410.898C229.151 410.896 231.913 410.984 232.272 411.104C232.84 411.293 233.07 411.692 234.567 415.078C235.48 417.146 236.237 418.868 236.25 418.902C236.26 418.936 237.417 418.793 238.82 418.587C240.225 418.379 241.431 418.163 241.5 418.106C241.571 418.047 241.489 417.339 241.319 416.531C241.149 415.722 240.627 413.028 240.158 410.546C239.691 408.061 239.262 405.816 239.207 405.558C239.113 405.104 239.024 405.085 237.163 405.121C236.092 405.142 234.081 405.224 232.693 405.302ZM280.019 405.302C278.631 405.381 270.609 405.461 262.193 405.476C250.157 405.499 246.872 405.56 246.803 405.768C246.754 405.911 246.66 406.95 246.592 408.078L246.47 410.126C248.18 410.585 249.459 410.917 250.414 411.157L252.149 411.596C252.305 413.629 252.41 419.135 252.486 425.141C252.572 432.137 252.534 438.286 252.379 442.257C252.244 445.664 252.067 448.728 251.985 449.064C251.84 449.643 251.706 449.711 249.379 450.324C248.031 450.681 246.87 451.019 246.803 451.078C246.733 451.134 246.75 452.199 246.836 453.442L246.996 455.702L272.657 455.593C272.876 452.012 272.891 450.924 272.828 450.868C272.765 450.809 271.267 450.525 269.5 450.238C267.731 449.948 266.204 449.633 266.105 449.534C266.006 449.438 265.853 448.446 265.767 447.329C265.678 446.214 265.535 442.631 265.451 439.368L265.295 433.435C272.142 433.464 274.603 433.536 275.181 433.611L276.233 433.752L277.074 439.739L282.228 439.737V421.676L277.074 421.672L276.233 427.309C274.765 427.502 272.327 427.559 269.87 427.556H265.401V411.176C267.927 410.93 270.789 410.861 273.393 410.861C275.995 410.861 278.551 410.932 279.073 411.016L280.019 411.169C282.602 416.951 283.406 418.7 283.473 418.788C283.54 418.877 284.588 418.801 285.803 418.623C287.017 418.442 288.224 418.253 288.485 418.2L288.958 418.106C288.344 415.42 287.753 412.49 287.248 409.861L286.329 405.083C283.395 405.14 281.407 405.224 280.019 405.302ZM293.922 407.742C293.792 409.554 293.817 410.05 294.04 410.168C294.196 410.249 295.315 410.56 296.531 410.861C297.744 411.159 298.855 411.47 298.996 411.552C299.137 411.633 299.372 412.268 299.522 412.961C299.728 413.927 299.791 418.31 299.791 431.816C299.791 444.603 299.726 449.452 299.553 449.561C299.425 449.643 298.241 449.986 296.924 450.32C295.609 450.656 294.455 450.985 294.358 451.055C294.263 451.124 294.24 452.197 294.305 453.44L294.427 455.698L317.459 455.702C317.701 453.989 317.771 452.926 317.771 452.233L317.773 450.973L313.253 449.679C313.036 448.077 312.964 444.374 312.954 440.42L312.937 433.227L315.339 433.332C318.62 441.144 319.964 444.12 320.442 444.987C320.921 445.853 321.912 447.354 322.646 448.324C323.378 449.295 324.548 450.609 325.242 451.246C325.936 451.88 327.072 452.783 327.766 453.247C328.46 453.713 329.596 454.356 330.29 454.677C330.984 454.997 332.355 455.488 333.34 455.772C334.322 456.055 336.12 456.404 337.336 456.546C338.67 456.702 340.502 456.754 341.964 456.675C343.293 456.603 344.837 456.473 345.39 456.383L346.4 456.223L346.276 451.891C343.993 450.979 342.62 450.265 341.753 449.715C340.885 449.165 339.37 447.898 338.388 446.901C337.404 445.905 336.209 444.569 335.733 443.935C335.256 443.301 333.102 440.348 330.948 437.375C328.792 434.399 327.028 431.895 327.028 431.809C327.025 431.721 327.619 431.391 328.342 431.074C329.066 430.757 330.273 430.1 331.026 429.617C331.777 429.132 333.01 428.115 333.763 427.357C334.753 426.364 335.378 425.484 336.011 424.196C336.495 423.213 337.004 421.796 337.145 421.046C337.303 420.206 337.353 418.873 337.279 417.581C337.208 416.338 336.991 415.008 336.751 414.326C336.529 413.689 336.127 412.744 335.86 412.226C335.595 411.705 334.848 410.751 334.2 410.105C333.508 409.411 332.416 408.622 331.552 408.185C330.742 407.778 329.322 407.204 328.397 406.912C327.471 406.618 325.673 406.217 324.4 406.02C322.446 405.717 319.908 405.646 308.085 405.562L294.084 405.465L293.922 407.742ZM312.937 410.753H315.251C316.523 410.753 318.061 410.865 318.669 411.001C319.277 411.138 320.196 411.539 320.713 411.894C321.229 412.249 321.971 412.965 322.36 413.484C322.747 414.004 323.218 414.949 323.403 415.584C323.597 416.245 323.738 417.501 323.738 418.524C323.736 419.652 323.589 420.813 323.336 421.674C323.117 422.426 322.598 423.56 322.183 424.194C321.769 424.831 321.058 425.65 320.602 426.015C320.145 426.38 319.205 426.943 318.511 427.267C317.432 427.769 316.936 427.863 312.937 427.974V419.364V410.753ZM409.396 406.606C409.335 407.213 409.257 408.254 409.226 408.92L409.167 410.132C410.307 410.434 411.443 410.722 412.427 410.963C413.409 411.207 414.33 411.472 414.473 411.552C414.64 411.646 414.829 412.765 414.993 414.639C415.17 416.632 415.241 421.538 415.214 429.864C415.193 436.623 415.1 443.774 415.01 445.756C414.919 447.739 414.764 449.44 414.665 449.536C414.566 449.633 413.289 450.005 411.825 450.366L409.167 451.021C409.255 453.098 409.327 454.15 409.381 454.698L409.482 455.696C427.99 455.696 428.629 455.673 428.715 455.328C428.768 455.127 428.835 454.064 428.865 452.966C428.917 451.126 428.888 450.966 428.509 450.901C428.282 450.864 426.961 450.555 425.573 450.219C424.185 449.881 423.024 449.58 422.994 449.553C422.965 449.524 422.843 448.934 422.723 448.24C422.601 447.535 422.454 441.764 422.388 435.115C422.311 427.248 422.342 423.321 422.481 423.459C422.595 423.575 426.637 428.016 431.46 433.33C436.286 438.643 442.899 445.935 446.155 449.534L452.076 456.08L457.86 456.116C457.873 429.18 457.961 419.234 458.064 416.634C458.23 412.425 458.293 411.881 458.634 411.648C458.844 411.505 460.01 411.148 461.225 410.852C462.439 410.556 463.558 410.247 463.712 410.168C463.926 410.052 463.962 409.51 463.869 407.761L463.749 405.503L444.924 405.501C444.697 409.002 444.71 410.067 444.808 410.123C444.905 410.182 446.249 410.537 447.793 410.915C450.586 411.598 450.603 411.606 450.769 412.28C450.86 412.654 450.986 417.778 451.049 423.669L451.167 434.38C449.556 432.752 445.974 429.016 442.169 425.028C438.362 421.038 432.621 415.015 429.412 411.64L423.575 405.503H409.509L409.396 406.606ZM101.335 476.96C101.333 477.682 101.272 479.028 101.198 479.952L101.064 481.632C106.572 483.065 108.282 483.585 108.417 483.711C108.556 483.842 108.777 485.31 108.928 487.093C109.117 489.321 109.195 495.59 109.197 508.514C109.199 521.383 109.119 527.81 108.932 530.25C108.716 533.033 108.594 533.766 108.312 533.973C108.118 534.114 106.541 534.568 104.805 534.979C103.07 535.393 101.533 535.796 101.387 535.878C101.186 535.992 101.16 536.706 101.282 538.995L101.44 541.966C136.249 542.134 147.037 542.279 148.976 542.414C150.827 542.54 152.99 542.668 153.781 542.695L155.219 542.746C155.97 540.141 157.253 535.465 158.555 530.67C159.855 525.877 160.957 521.86 161.001 521.744C161.046 521.629 159.384 521.11 157.297 520.589C155.215 520.071 153.473 519.693 153.423 519.749C153.375 519.808 152.037 522.454 150.447 525.63C148.859 528.807 147.393 531.642 147.191 531.93C146.871 532.388 146.545 532.495 144.639 532.77C143.047 532.999 140.889 533.075 136.672 533.045C133.491 533.022 130.035 532.902 128.994 532.778C127.953 532.655 127.082 532.531 127.059 532.503C127.036 532.478 126.918 531.18 126.796 529.62C126.67 527.98 126.578 519.814 126.575 510.246C126.575 500.884 126.674 492.137 126.8 490.085C126.925 488.092 127.091 485.849 127.169 485.097L127.312 483.735L136.682 481.842C136.672 479.727 136.598 478.333 136.514 477.377L136.356 475.645L101.335 475.647V476.96ZM189.574 491.322C189.111 491.371 187.927 491.557 186.945 491.738C185.96 491.917 184.399 492.303 183.474 492.595C182.548 492.885 180.986 493.517 180.003 493.996C179.019 494.475 177.553 495.31 176.743 495.852C175.933 496.392 174.514 497.534 173.588 498.387C172.663 499.242 171.367 500.64 170.709 501.497C170.048 502.354 169.121 503.763 168.645 504.629C168.17 505.496 167.461 507.054 167.072 508.094C166.683 509.133 166.161 511.023 165.909 512.294C165.581 513.964 165.452 515.419 165.444 517.544C165.435 519.464 165.553 521.104 165.78 522.269C165.972 523.252 166.336 524.716 166.59 525.525C166.845 526.333 167.484 527.845 168.012 528.885C168.54 529.924 169.501 531.485 170.149 532.35C170.797 533.217 172.032 534.587 172.894 535.395C173.754 536.204 175.258 537.403 176.232 538.06C177.208 538.715 178.714 539.577 179.583 539.973C180.449 540.37 182.084 540.992 183.211 541.353C184.338 541.714 186.185 542.168 187.313 542.361C188.581 542.58 190.607 542.72 192.624 542.729C195.005 542.741 196.366 542.645 197.672 542.37C198.654 542.162 200.217 541.748 201.142 541.45C202.068 541.152 203.723 540.452 204.823 539.894C205.921 539.337 207.673 538.277 208.715 537.535C209.756 536.796 211.175 535.632 211.87 534.952C212.564 534.272 213.567 533.148 214.101 532.455C214.636 531.762 215.447 530.582 215.91 529.83C216.371 529.08 217.036 527.803 217.389 526.995C217.742 526.186 218.226 524.817 218.462 523.95C218.699 523.084 218.992 521.642 219.114 520.747C219.236 519.852 219.337 517.845 219.337 516.284C219.337 514.726 219.231 512.716 219.105 511.821C218.979 510.927 218.64 509.392 218.354 508.409C218.066 507.428 217.526 505.962 217.149 505.154C216.775 504.345 216.007 502.976 215.443 502.108C214.877 501.243 213.559 499.672 212.511 498.618C211.464 497.564 209.802 496.178 208.82 495.537C207.835 494.897 206.416 494.096 205.665 493.758C204.912 493.422 203.54 492.897 202.615 492.597C201.689 492.295 200.126 491.891 199.144 491.702C198.076 491.499 195.96 491.333 193.886 491.295C191.976 491.259 190.037 491.272 189.574 491.322ZM189.679 497.57C190.314 497.429 191.261 497.305 191.782 497.293C192.302 497.282 193.248 497.371 193.886 497.486C194.521 497.604 195.646 498.007 196.385 498.381C197.287 498.839 198.185 499.548 199.119 500.542C199.885 501.354 200.848 502.631 201.258 503.377C201.67 504.122 202.257 505.395 202.566 506.204C202.876 507.012 203.273 508.241 203.452 508.934C203.631 509.627 203.919 511.257 204.089 512.556C204.262 513.856 204.4 516.503 204.4 518.437C204.398 520.468 204.264 522.887 204.079 524.16C203.902 525.373 203.563 527.026 203.326 527.835C203.086 528.643 202.547 529.966 202.127 530.775C201.706 531.584 200.863 532.741 200.253 533.348C199.643 533.955 198.694 534.654 198.145 534.904C197.596 535.152 196.673 535.481 196.094 535.637C195.516 535.79 194.426 535.916 193.675 535.916C192.922 535.916 191.835 535.792 191.256 535.641C190.678 535.49 189.732 535.145 189.153 534.874C188.501 534.568 187.418 533.696 186.303 532.579C184.768 531.037 184.349 530.454 183.423 528.57C182.83 527.358 182.195 525.915 182.014 525.367C181.833 524.819 181.476 523.496 181.221 522.427C180.803 520.68 180.756 519.938 180.758 515.024C180.761 509.77 180.782 509.486 181.324 507.464C181.634 506.309 182.315 504.49 182.839 503.421C183.503 502.06 184.151 501.111 184.999 500.25C185.664 499.574 186.728 498.752 187.365 498.425C188 498.097 189.042 497.713 189.679 497.57ZM374.145 491.484C372.93 491.639 370.896 492.024 369.623 492.341C368.351 492.656 366.624 493.189 365.784 493.521C364.945 493.855 363.574 494.472 362.735 494.892C361.895 495.312 360.547 496.092 359.737 496.623C358.927 497.154 357.474 498.345 356.506 499.271C355.539 500.197 354.287 501.569 353.728 502.318C353.168 503.07 352.331 504.393 351.873 505.259C351.412 506.126 350.741 507.638 350.379 508.619C350.02 509.602 349.527 511.492 349.288 512.819C348.983 514.507 348.85 516.118 348.85 518.174C348.85 520.031 348.981 521.849 349.208 523.11C349.405 524.208 349.755 525.672 349.986 526.365C350.215 527.058 350.766 528.381 351.208 529.305C351.65 530.229 352.577 531.741 353.269 532.665C353.961 533.589 355.133 534.904 355.871 535.584C356.609 536.267 357.781 537.229 358.475 537.722C359.169 538.218 360.73 539.094 361.946 539.667C363.159 540.242 365.101 540.994 366.258 541.341C367.415 541.685 369.402 542.139 370.675 542.351C372.322 542.624 374.11 542.735 376.88 542.737C379.639 542.741 381.474 542.63 383.19 542.359C384.519 542.149 386.745 541.647 388.133 541.246C389.521 540.845 391.627 540.049 392.813 539.478L394.969 538.44L394.704 524.475C398.532 523.158 399.089 522.872 399.146 522.568C399.188 522.347 399.163 521.291 399.094 520.222L398.965 518.279L375.933 518.277C375.683 521.942 375.635 523.023 375.666 523.049C375.698 523.072 377.048 523.427 378.668 523.838C380.287 524.248 381.659 524.638 381.718 524.706C381.774 524.775 381.894 525.93 381.985 527.276C382.073 528.624 382.121 531.191 382.09 532.98L382.033 536.235C378.773 536.336 377.305 536.267 376.669 536.149C376.032 536.029 374.945 535.681 374.251 535.376C373.556 535.072 372.467 534.467 371.832 534.034C371.194 533.6 370.239 532.783 369.709 532.22C369.179 531.657 368.313 530.533 367.783 529.725C367.253 528.916 366.493 527.499 366.094 526.575C365.694 525.651 365.166 524.092 364.918 523.11C364.672 522.129 364.377 520.617 364.266 519.749C364.154 518.884 364.062 517.089 364.062 515.759C364.062 514.432 364.154 512.636 364.266 511.769C364.377 510.904 364.67 509.392 364.914 508.409C365.158 507.428 365.719 505.868 366.163 504.944C366.607 504.02 367.379 502.77 367.875 502.169C368.374 501.567 369.255 500.68 369.833 500.201C370.412 499.723 371.453 499.046 372.147 498.7C372.841 498.351 374.118 497.889 374.987 497.671C375.937 497.431 377.273 497.276 378.352 497.28C379.334 497.284 380.779 497.379 381.56 497.492C382.34 497.606 383.524 497.917 384.189 498.183L385.398 498.671C386.404 501.415 387.066 503.245 387.519 504.507L388.343 506.8C392.743 506.58 394.048 506.493 394.079 506.466C394.111 506.437 394.062 503.652 393.974 500.275L393.812 494.136C392.018 493.34 390.646 492.87 389.605 492.578C388.564 492.288 386.86 491.896 385.819 491.707C384.702 491.505 382.374 491.331 380.14 491.284C377.755 491.234 375.536 491.308 374.145 491.484ZM442.505 491.629C441.289 491.713 432.382 491.862 422.706 491.959L405.118 492.133C404.905 495.388 404.918 496.392 405.006 496.463C405.097 496.533 406.068 496.837 407.168 497.137C408.266 497.438 409.43 497.759 409.749 497.849C410.071 497.94 410.378 498.131 410.433 498.276C410.488 498.421 410.626 499.601 410.742 500.901C410.856 502.201 410.948 509.455 410.946 517.019C410.942 524.586 410.856 531.72 410.753 532.875C410.65 534.03 410.507 535.212 410.437 535.5C410.321 535.977 410.069 536.084 407.776 536.655C406.382 537.002 405.151 537.334 405.038 537.39C404.912 537.455 404.897 538.329 405.002 539.732L405.17 541.969C435.196 542.139 443.988 542.275 445.345 542.41C446.617 542.533 447.705 542.578 447.764 542.508C447.82 542.437 448.369 540.526 448.984 538.258C449.596 535.99 450.416 532.955 450.805 531.51C451.194 530.067 451.546 528.75 451.583 528.589C451.638 528.364 451.039 528.173 449.131 527.808C447.743 527.541 446.544 527.392 446.466 527.474C446.39 527.558 445.277 529.538 443.994 531.878L441.664 536.13C438.486 536.336 434.723 536.349 431.252 536.292C427.782 536.235 424.799 536.13 424.627 536.055C424.397 535.956 424.267 535.391 424.151 533.978C424.065 532.909 423.993 529.177 423.993 525.682L423.995 519.329C432.96 519.329 435.564 519.378 435.564 519.434C435.564 519.493 435.705 520.508 435.877 521.692C436.048 522.876 436.237 524.151 436.298 524.527L436.405 525.21H441.454V507.569H436.405C436.239 508.627 436.042 509.879 435.861 511.034C435.682 512.189 435.516 513.155 435.497 513.18C435.476 513.205 433.612 513.292 431.357 513.369C429.1 513.447 426.522 513.449 425.626 513.375L423.995 513.239C424.078 501.222 424.179 497.654 424.275 497.557C424.372 497.463 427.706 497.383 431.683 497.383C437.838 497.383 438.959 497.429 439.216 497.698C439.38 497.872 440.204 499.62 441.043 501.583C441.885 503.547 442.581 505.183 442.591 505.221C442.602 505.256 443.792 505.126 445.24 504.931C446.685 504.738 447.894 504.566 447.926 504.551C447.955 504.536 447.452 501.737 446.809 498.328C446.163 494.922 445.593 491.967 445.542 491.765C445.492 491.564 445.284 491.415 445.082 491.436C444.88 491.457 443.719 491.543 442.505 491.629ZM225.996 492.185C225.945 492.271 225.87 493.284 225.828 494.432L225.752 496.522L231.284 498.013C231.503 499.805 231.65 505.616 231.751 512.084C231.854 518.552 231.995 524.176 232.066 524.58C232.138 524.985 232.344 526.071 232.523 526.995C232.704 527.919 233.082 529.29 233.364 530.04C233.646 530.792 234.214 532.02 234.626 532.77C235.036 533.522 235.812 534.694 236.347 535.374C236.883 536.057 237.949 537.142 238.717 537.789C239.485 538.436 240.835 539.367 241.714 539.858C242.594 540.349 244.144 541.03 245.156 541.37C246.167 541.712 247.894 542.158 248.994 542.361C250.418 542.624 252.048 542.729 254.673 542.727C257.656 542.722 258.714 542.639 260.247 542.284C261.289 542.042 262.755 541.595 263.508 541.29C264.259 540.986 265.489 540.368 266.242 539.919C266.993 539.469 268.146 538.646 268.804 538.09C269.46 537.531 270.533 536.414 271.185 535.605C271.837 534.797 272.83 533.19 273.391 532.035C273.951 530.88 274.651 529.038 274.948 527.94C275.244 526.844 275.581 525.094 275.699 524.055C275.817 523.015 275.92 518.101 275.926 513.134C275.932 508.167 276.023 502.78 276.128 501.163C276.231 499.546 276.393 498.158 276.485 498.078C276.578 497.996 277.836 497.608 279.283 497.215L281.912 496.499C281.801 493.277 281.729 492.271 281.683 492.185C281.635 492.099 277.148 492.028 271.711 492.028H261.825C261.743 494.958 261.72 495.966 261.72 496.157C261.72 496.43 262.368 496.669 264.698 497.259L267.674 498.013C267.87 499.479 267.986 504.629 268.057 510.404C268.173 519.462 268.143 521.222 267.851 523.215C267.664 524.485 267.334 526.046 267.117 526.68C266.898 527.316 266.457 528.356 266.133 528.99C265.809 529.626 265.098 530.617 264.551 531.195C263.911 531.871 263.045 532.487 262.113 532.921C261.219 533.339 260.024 533.69 258.985 533.837C258.06 533.969 256.522 534.018 255.567 533.948C254.612 533.877 253.241 533.625 252.517 533.383C251.794 533.144 250.736 532.648 250.168 532.281C249.598 531.915 248.725 531.142 248.224 530.565C247.726 529.987 247.042 528.948 246.708 528.255C246.371 527.562 245.94 526.476 245.749 525.84C245.557 525.205 245.263 523.788 245.095 522.69C244.876 521.264 244.79 518.779 244.785 513.974C244.785 510.278 244.884 505.364 245.008 503.053C245.135 500.743 245.269 498.664 245.313 498.433C245.376 498.089 245.871 497.879 248.033 497.278L250.675 496.543L250.677 492.028C231.62 492.028 226.046 492.099 225.996 492.185ZM287.617 493.13C287.551 493.737 287.469 494.747 287.438 495.375L287.381 496.518L292.925 498.013C293.1 499.315 293.268 502.577 293.409 506.099C293.613 511.151 293.615 514.898 293.413 523.845C293.273 530.082 293.108 535.374 293.047 535.605C292.957 535.95 292.437 536.149 290.16 536.716L287.381 537.407C287.593 540.406 287.665 541.441 287.675 541.643C287.694 541.987 288.281 542.008 297.319 541.958L306.942 541.906C307.123 538.489 307.172 537.474 307.165 537.449C307.157 537.422 305.811 537.092 304.17 536.714C301.408 536.076 301.179 535.987 301.07 535.5C301.005 535.212 300.851 532.896 300.731 530.355C300.611 527.814 300.54 522.148 300.571 517.763L300.632 509.789C317.064 527.843 323.784 535.233 326.167 537.859L330.5 542.632L336.074 542.641C336.226 509.681 336.343 499.649 336.434 499.08C336.571 498.23 336.693 498.019 337.126 497.887C337.414 497.799 338.634 497.461 339.835 497.135C341.173 496.772 342.058 496.421 342.126 496.228C342.187 496.056 342.174 495.039 342.1 493.97L341.964 492.028H323.033C322.951 494.47 322.928 495.48 322.928 495.85V496.522L328.803 498.013C329.083 499.154 329.211 504.257 329.268 510.089L329.373 520.694C326.161 517.439 323.475 514.652 321.332 512.399C319.188 510.148 314.594 505.328 311.124 501.688C307.653 498.051 304.155 494.384 303.354 493.542L301.894 492.009L287.739 492.028L287.617 493.13Z" fill="#FF6415"/>
</svg>
